<?xml version="1.0" standalone="no"?>
<!DOCTYPE svg PUBLIC "-//W3C//DTD SVG 1.1//EN" "http://www.w3.org/Graphics/SVG/1.1/DTD/svg11.dtd" >
<svg>
<metadata>
Created by FontForge 20090914 at Fri Feb 24 13:24:12 2012
 By root
Copyright &#194;&#169; 2005  The Cardozo Kindersley Workshop &#38; The Grand Arcade Cambridge.  All rights reserved. 
</metadata>
<defs>
<font id="KindersleyGrandArcade" horiz-adv-x="1290" >
  <font-face 
    font-family="Kindersley Grand Arcade"
    font-weight="400"
    font-stretch="normal"
    units-per-em="2048"
    panose-1="0 0 4 0 0 0 0 0 0 0"
    ascent="1638"
    descent="-410"
    x-height="1100"
    cap-height="1514"
    bbox="-110 -548 2115 1992"
    underline-thickness="20"
    underline-position="-123"
    unicode-range="U+0020-U+F002"
  />
<missing-glyph horiz-adv-x="1024" 
d="M128 0v1792h768v-1792h-768zM256 128h512v1536h-512v-1536z" />
    <glyph glyph-name=".notdef" horiz-adv-x="1024" 
d="M128 0v1792h768v-1792h-768zM256 128h512v1536h-512v-1536z" />
    <glyph glyph-name=".null" horiz-adv-x="0" 
 />
    <glyph glyph-name="glyph2" horiz-adv-x="458" 
 />
    <glyph glyph-name="space" unicode=" " horiz-adv-x="458" 
 />
    <glyph glyph-name="exclam" unicode="!" horiz-adv-x="567" 
d="M447 1447q-65 -22 -73 -185q-20 -426 -23 -951q-19 4 -55 9q-39 1 -54 -6q-5 515 -34 948q-11 167 -78 187v65q28 0 83 -2t83 -2q25 0 75.5 2t75.5 2v-67zM411 91q0 -49 -35 -84t-84 -35q-50 0 -85 34.5t-35 84.5t35 84.5t85 34.5q49 0 84 -35t35 -84z" />
    <glyph glyph-name="quotedbl" unicode="&#x22;" horiz-adv-x="939" 
d="M756 1467q-37 -167 -66 -366h-62q-22 164 -65 366q-5 21 -5 40q0 52 33 82q28 27 68 27q39 0 68 -27q34 -31 34 -83q0 -19 -5 -39zM386 1467q-37 -167 -66 -366h-62q-22 164 -65 366q-5 21 -5 40q0 52 33 82q28 27 68 27q39 0 68 -27q34 -31 34 -83q0 -19 -5 -39z" />
    <glyph glyph-name="numbersign" unicode="#" horiz-adv-x="1383" 
d="M1302 965h-231l-78 -385h279v-110h-304l-96 -460h-130l95 460h-382l-103 -460h-133l103 460h-210v110h239l83 385h-292v109h318l96 417h133l-96 -417h371l92 417h131l-94 -417h209v-109zM940 965h-373l-83 -385h378z" />
    <glyph glyph-name="dollar" unicode="$" horiz-adv-x="1300" 
d="M1138 402q0 -166 -130 -296q-101 -101 -263 -101v-138h-121v138q-186 0 -356 86q-24 71 -36 220l51 12q71 -113 119 -143q108 -69 222 -69v588q-240 129 -277 166q-129 126 -129 283q0 145 128 263q48 44 135 74q81 28 143 28v112h121v-112q38 0 187 -38q75 -18 111 -18
v-215h-47q-13 25 -54 79q-29 29 -86 55q-62 29 -111 29v-557q122 -68 280 -172q113 -113 113 -274zM624 903v502q-28 0 -79 -18q-54 -19 -78 -40q-83 -74 -83 -171q0 -95 64 -160q10 -10 176 -113zM966 363q0 83 -60 170q-15 21 -67 57l-94 62v-541q121 2 170 87
q51 90 51 165z" />
    <glyph glyph-name="percent" unicode="%" horiz-adv-x="1612" 
d="M1529 437q0 -181 -86 -287q-91 -112 -255 -112q-133 0 -226.5 111.5t-93.5 269.5q0 168 87 273q91 112 248 112q149 0 237.5 -99t88.5 -268zM1363 1505l-961 -1496h-155l960 1496h156zM759 1141q0 -181 -86 -288q-90 -111 -255 -111q-132 0 -226 111t-94 269
q0 168 87 274q92 112 249 112q148 0 236.5 -99.5t88.5 -267.5zM1381 414q0 120 -39 201q-48 102 -144 102q-111 0 -155 -129q-24 -70 -24 -157q0 -123 40 -205q49 -101 147 -101q109 0 152 129q23 70 23 160zM611 1118q0 120 -38 201q-48 102 -145 102q-110 0 -154 -129
q-25 -70 -25 -157q0 -123 40 -205q50 -102 148 -102q109 0 151 130q23 69 23 160z" />
    <glyph glyph-name="ampersand" unicode="&#x26;" horiz-adv-x="1567" 
d="M1480 98q-55 -42 -125 -64q-87 -28 -135 -34l-197 218q-117 -106 -170 -140q-128 -82 -265 -82q-159 0 -272 97q-118 103 -118 259q0 130 89 237q51 61 219 195q-64 80 -112 150q-73 107 -73 234q0 141 103.5 243.5t244.5 102.5q130 0 232 -79q116 -90 116 -231
q0 -125 -93 -235q-28 -33 -83 -79l-116 -98q116 -139 335 -366q117 157 117 243q0 54 -66 77v50h318v-56q-41 5 -90 -88q-79 -150 -199 -305q88 -99 172 -163q38 -29 93 -41q36 -8 57 -2q5 -13 18 -43zM851 1165q0 82 -40 146q-52 83 -152 83q-71 0 -129 -52t-58 -122
q0 -148 178 -343q60 47 156 141q45 60 45 147zM942 295q-60 75 -356 394q-208 -158 -208 -318q0 -101 70.5 -173t171.5 -72q143 0 322 169z" />
    <glyph glyph-name="quotesingle" unicode="'" horiz-adv-x="567" 
d="M385 1467q-37 -167 -65 -366h-62q-23 164 -66 366q-5 21 -5 40q0 52 33 82q29 27 69 27q38 0 67 -27q34 -31 34 -83q0 -19 -5 -39z" />
    <glyph glyph-name="parenleft" unicode="(" horiz-adv-x="710" 
d="M625 -474h-72q-400 412 -400 1037q0 249 91 510q106 304 309 521h72q-164 -265 -232 -520q-60 -225 -60 -511q0 -658 292 -1037z" />
    <glyph glyph-name="parenright" unicode=")" horiz-adv-x="710" 
d="M567 563q0 -625 -400 -1037h-72q292 379 292 1037q0 286 -60 511q-68 255 -232 520h72q203 -217 309 -521q91 -261 91 -510z" />
    <glyph glyph-name="asterisk" unicode="*" horiz-adv-x="1252" 
d="M1151 979q-88 -121 -145 -257l-49 30q4 52 -18 87q-48 75 -264 203q0 -276 37 -336q24 -40 64 -59v-58q-77 9 -142 9q-73 0 -149 -9v58q47 22 66 59q39 77 39 336q-234 -137 -267 -202q-21 -41 -18 -86l-50 -29q-57 136 -145 257l50 29q41 -30 82 -28q87 5 305 133
q-208 122 -305 128q-41 2 -82 -28l-50 29q88 121 145 257l50 -29q-3 -45 18 -86q33 -65 267 -202q0 259 -39 336q-19 37 -66 59v58q77 -9 149 -9q65 0 142 9v-58q-40 -19 -64 -59q-37 -60 -37 -336q216 128 264 203q22 35 18 87l49 30q57 -136 145 -257l-49 -29
q-35 24 -82 26q-70 2 -304 -135q222 -131 304 -128q47 2 82 26z" />
    <glyph glyph-name="plus" unicode="+" horiz-adv-x="1370" 
d="M1233 485h-477v-477h-132v477h-477v131h477v477h132v-477h477v-131z" />
    <glyph glyph-name="comma" unicode="," horiz-adv-x="510" 
d="M419 8q-2 -103 -50 -201q-52 -103 -134 -156l-40 39q65 63 84 95q23 39 23 99q0 33 -27 55q-8 7 -60 33q-76 39 -76 123q0 51 40 87t92 36q95 1 130 -92q19 -51 18 -118z" />
    <glyph glyph-name="hyphen" unicode="-" horiz-adv-x="761" 
d="M623 669l-51 -138l-271 1q-92 0 -126 -33l-36 16l48 136h262q101 0 134 33z" />
    <glyph glyph-name="hyphen" unicode="&#x2010;" horiz-adv-x="761" 
d="M623 669l-51 -138l-271 1q-92 0 -126 -33l-36 16l48 136h262q101 0 134 33z" />
    <glyph glyph-name="period" unicode="." horiz-adv-x="510" 
d="M387 85q0 -56 -39.5 -95.5t-95.5 -39.5t-96 39.5t-40 95.5t40 95.5t96 39.5t95.5 -39.5t39.5 -95.5z" />
    <glyph glyph-name="slash" unicode="/" horiz-adv-x="1137" 
d="M1028 1575l-777 -1616h-131l777 1616h131z" />
    <glyph glyph-name="zero" unicode="0" 
d="M1186 760q0 -296 -116 -511q-144 -267 -415 -267q-269 0 -418 267q-122 220 -122 511q0 302 117 511q144 258 423 258q287 0 424 -256q107 -200 107 -513zM1004 760q0 256 -68 428q-90 228 -281 228q-179 0 -277 -223q-81 -184 -81 -433q0 -263 86 -450q99 -216 272 -216
q205 0 292 249q57 164 57 417z" />
    <glyph glyph-name="one" unicode="1" 
d="M865 0q-82 8 -200 8q-132 0 -268 -8v56q157 20 157 198v900q0 104 -11 142q-8 29 -36 53q-9 8 -91 25v63q97 10 334 87q-16 -159 -16 -299v-971q0 -99 16 -132q25 -52 115 -66v-56z" />
    <glyph glyph-name="two" unicode="2" 
d="M1073 226q-8 -50 -38 -115q-33 -74 -65 -100h-760v121l288 260q167 157 262 312q115 189 115 383q0 132 -78 211.5t-210 79.5q-76 0 -177 -49q-47 -23 -84 -73q-40 -53 -40 -102h-73l15 191q98 95 177 132q101 48 249 48q172 0 290 -124.5t118 -297.5q0 -262 -217 -532
q-106 -132 -404 -396q33 -3 188 -3h264q49 0 76 15q18 10 51 44z" />
    <glyph glyph-name="three" unicode="3" 
d="M1073 446q0 -204 -158 -338q-148 -126 -347 -126q-142 0 -294 58q-52 66 -69 221h72q14 -76 114 -118q80 -34 170 -34q145 0 234 88t89 232t-107 229q-99 78 -247 78q-23 0 -62 -3l-62 -4v140q20 -6 129 -6q141 0 224 81t83 221q0 107 -94 168q-81 51 -194 51
q-109 0 -208 -81q-64 -52 -82 -129h-61l12 179q174 170 418 170q143 0 259 -88q129 -98 129 -251q0 -281 -288 -374q148 -17 244 -117t96 -247z" />
    <glyph glyph-name="four" unicode="4" 
d="M1210 569q-16 -58 -99 -172h-176v-165q0 -85 16 -120q24 -53 98 -59v-53q-29 0 -87.5 3.5t-87.5 3.5q-45 0 -134 -3.5t-134 -3.5v53q91 6 125 46t34 133v165h-702v127q134 246 328 491q256 325 400 483h144v-961h127q61 0 96 47zM765 537v753q-137 -155 -275 -340
q-200 -269 -278 -413h553z" />
    <glyph glyph-name="five" unicode="5" 
d="M1099 1524q-36 -124 -114 -198h-486l-86 -374q91 28 222 28q178 0 311.5 -130t133.5 -307q0 -212 -149 -376q-159 -176 -391 -176q-127 0 -283 59q-35 59 -42 209h65q10 -77 98 -116q69 -30 159 -30q164 0 264 133q85 113 85 250q0 184 -114 278q-106 86 -292 86
q-95 0 -227 -27l150 664h512q93 0 120 27h64z" />
    <glyph glyph-name="six" unicode="6" 
d="M1159 531q0 -234 -118 -381q-129 -161 -357 -161q-284 0 -416 242q-99 181 -99 456q0 300 127 528q167 300 494 300q112 0 190 -21q7 -2 103 -37q29 -122 29 -193l-53 -9q-41 67 -79 95q-72 54 -190 54q-210 0 -319 -190q-83 -144 -100 -379q131 146 334 146
q179 0 308 -112q146 -126 146 -338zM981 510q0 132 -70 227q-84 114 -240 114q-162 0 -247 -131q-62 -95 -62 -204q0 -158 78 -275q92 -138 258 -138q158 0 230 143q53 105 53 264z" />
    <glyph glyph-name="seven" unicode="7" 
d="M1167 1493l-383 -997q-163 -428 -236 -491h-264l8 61q184 11 321 373q192 508 351 888q-278 0 -495 4q-160 3 -234 -131l-65 14l88 279h909z" />
    <glyph glyph-name="eight" unicode="8" 
d="M1170 403q0 -204 -152 -321q-138 -108 -347 -108q-166 0 -303 74q-204 110 -204 347q0 244 339 416q-275 146 -275 360q0 203 180 300q122 66 263 66q182 0 302 -87q134 -98 134 -274q0 -127 -106 -220q-53 -46 -193 -119q362 -195 362 -434zM941 1179q0 79 -56 148
q-73 91 -208 91q-104 0 -181 -58q-85 -64 -85 -165q0 -94 94 -172q13 -11 179 -115q148 81 183 111q74 63 74 160zM972 386q0 101 -93 191q-74 72 -253 170q-159 -95 -207 -143q-81 -80 -81 -196q0 -139 101 -228q96 -86 237 -86q137 0 216.5 78t79.5 214z" />
    <glyph glyph-name="nine" unicode="9" 
d="M1153 823q0 -301 -126 -528q-166 -300 -493 -300q-112 0 -190 21q-7 2 -103 37q-29 122 -29 193l60 7q56 -86 84 -106q57 -41 178 -41q210 0 318 190q82 144 99 379q-131 -146 -329 -146q-162 0 -298 114q-157 132 -157 340q0 228 119 377q130 161 352 161
q284 0 416 -242q99 -181 99 -456zM960 994q0 156 -73 270q-91 143 -263 143q-158 0 -229 -143q-52 -104 -52 -264q0 -132 71 -227q85 -114 242 -114q162 0 245 131q59 93 59 204z" />
    <glyph glyph-name="colon" unicode=":" horiz-adv-x="510" 
d="M415 989q0 -56 -39.5 -95.5t-95.5 -39.5t-95.5 39.5t-39.5 95.5t39.5 95.5t95.5 39.5t95.5 -39.5t39.5 -95.5zM415 115q0 -56 -39.5 -95.5t-95.5 -39.5t-95.5 39.5t-39.5 95.5t39.5 95.5t95.5 39.5t95.5 -39.5t39.5 -95.5z" />
    <glyph glyph-name="semicolon" unicode=";" horiz-adv-x="510" 
d="M417 989q0 -56 -39.5 -95.5t-95.5 -39.5t-95.5 39.5t-39.5 95.5t39.5 95.5t95.5 39.5t95.5 -39.5t39.5 -95.5zM419 8q-2 -103 -50 -201q-52 -103 -134 -156l-40 39q65 63 84 95q23 39 23 99q0 33 -27 55q-8 7 -60 33q-76 39 -76 123q0 51 40 87t92 36q95 1 130 -92
q19 -51 18 -118z" />
    <glyph glyph-name="less" unicode="&#x3c;" horiz-adv-x="1370" 
d="M1221 28l-1063 457v119l1063 457v-144l-887 -372l887 -375v-142z" />
    <glyph glyph-name="equal" unicode="=" horiz-adv-x="1370" 
d="M1222 719h-1065v131h1065v-131zM1222 254h-1063v131h1063v-131z" />
    <glyph glyph-name="greater" unicode="&#x3e;" horiz-adv-x="1370" 
d="M1221 485l-1063 -457v144l887 373l-887 374v142l1063 -457v-119z" />
    <glyph glyph-name="question" unicode="?" horiz-adv-x="955" 
d="M896 1165q0 -272 -283 -446l-143 -85q-59 -45 -77 -70q-27 -38 -27 -95v-124l-103 -9q-12 49 -12 112q0 144 51 206q18 22 174 133q111 79 160 147q69 96 69 228q0 126 -70 204.5t-194 78.5q-218 0 -284 -207h-81q0 91 33 211q86 59 145 83q90 36 205 36q205 0 318 -98
q119 -103 119 -305zM447 91q0 -50 -35 -84.5t-85 -34.5q-49 0 -84 35t-35 84t35 84t84 35q50 0 85 -34.5t35 -84.5z" />
    <glyph glyph-name="at" unicode="@" horiz-adv-x="2058" 
d="M1874 729q0 -398 -181 -599q-143 -159 -353 -159q-92 0 -153 72q-58 68 -52 155q9 108 18 180q-88 -177 -141 -241q-115 -137 -274 -137q-90 0 -146 112q-50 101 -50 234q0 335 166 568q181 252 475 252q28 0 57 -2q77 -12 194 -26l-145 -906q-3 -26 -3 -47
q0 -102 93 -102q168 0 282 200q105 184 105 417q0 300 -176 500q-192 219 -523 219q-322 0 -532 -217q-228 -236 -228 -644q0 -146 69 -317q71 -177 177 -277l-76 -44q-127 101 -207 302q-75 188 -75 374q0 373 223 630q245 283 656 283q362 0 585 -227q215 -218 215 -553z
M1253 1054q-28 3 -55 3q-233 0 -364 -234q-104 -187 -104 -412q0 -254 90 -254q152 0 286 313q117 276 147 584z" />
    <glyph glyph-name="A" unicode="A" horiz-adv-x="1481" 
d="M1471 0h-326q5 47 5 83q0 50 -27 128l-91 258h-621q-50 -127 -93 -267q-16 -52 -16 -95q0 -95 1 -107h-283v46q66 14 113 86q25 38 62 133l490 1265h128l481 -1222q49 -125 70 -163q48 -87 107 -97v-48zM995 576l-282 708l-266 -708h548z" />
    <glyph glyph-name="B" unicode="B" horiz-adv-x="1282" 
d="M1192 431q0 -199 -116.5 -318t-314.5 -119q-55 0 -165.5 5t-165.5 5q-40 0 -120 -2t-120 -2v45q55 20 68 114q7 50 7 268v761q0 144 -11 204q-14 74 -54 83v43q39 0 97 -1l77 -1q40 0 121 5t122 5q160 0 266 -63q144 -86 144 -270q0 -203 -180 -343q123 -37 222 -137
q123 -125 123 -282zM862 1135q0 135 -75 213.5t-210 78.5q-72 0 -126 -8q-6 -121 -6 -200v-365h156q120 0 192 82q69 77 69 199zM1013 367q0 168 -96 274q-99 110 -265 110h-207v-400q0 -158 44 -203q54 -55 250 -56q129 -1 201.5 72t72.5 203z" />
    <glyph glyph-name="C" unicode="C" horiz-adv-x="1541" 
d="M1443 240q-4 -36 -20 -103q-6 -24 -29 -87q-183 -71 -463 -71q-357 0 -593 205q-248 216 -248 568q0 454 333 665q219 139 477 139q137 0 352 -40q113 -21 152 -21v-212l-45 -3q-19 52 -88 88q-150 78 -369 78q-287 0 -454 -198q-157 -186 -157 -479q0 -288 225 -488
q211 -187 477 -187q187 0 306 53q47 21 99 105z" />
    <glyph glyph-name="D" unicode="D" horiz-adv-x="1672" 
d="M1572 771q0 -363 -200 -570q-203 -210 -564 -210q-66 0 -197 6.5t-197 6.5q-166 0 -233 -4v45q48 12 63 80q10 46 10 177v928q0 227 -74 242v45l197 -2q71 -1 201 5q139 7 202 7q347 0 566 -203q226 -209 226 -553zM1387 730q0 286 -171 482q-179 205 -461 205
q-174 0 -309 -10l-9 -244v-809q0 -164 30 -197q58 -63 358 -63q278 0 426 183q136 169 136 453z" />
    <glyph glyph-name="E" unicode="E" horiz-adv-x="1214" 
d="M1121 210q-13 -55 -43 -113q-35 -68 -53 -80q-37 -24 -239 -24q-64 0 -192.5 6.5t-192.5 6.5q-37 0 -110.5 -3t-110.5 -3v45q62 7 74 118q1 9 1 160v919q0 103 -5 135q-14 88 -67 90v42h583q132 0 157 3q50 6 81 35l27 -21l-56 -203l-36 9q0 76 -154 76h-343
q-6 -56 -6 -141v-409h360q137 0 173 47l35 -12l-57 -225l-36 4q-3 79 -138 79h-337v-513q0 -103 116 -131q46 -11 199 -11q134 0 200 19q52 15 136 109q13 -5 34 -14z" />
    <glyph glyph-name="F" unicode="F" horiz-adv-x="1156" 
d="M1068 1526l-60 -224l-38 10q0 49 -27 67q-37 25 -151 25h-351q-2 -22 -2 -209v-414h353q156 0 194 49l32 -11l-54 -236l-36 4q-3 86 -151 86h-338v-371q0 -157 11 -195q13 -43 70 -62v-45h-340v45q51 15 66 80q11 49 11 209v931q0 183 -69 201v43h573q165 0 207 5
q52 6 71 33z" />
    <glyph glyph-name="G" unicode="G" horiz-adv-x="1626" 
d="M1496 688q-41 -21 -51 -60q-7 -27 -7 -123v-221q0 -171 14 -214q-60 -42 -255 -72q-161 -24 -273 -24q-350 0 -577 189q-257 214 -257 605q0 370 239 588q226 206 580 206q88 0 255.5 -34t248.5 -34q17 0 29 3v-207l-46 -13q-32 49 -89 82q-169 96 -398 96
q-295 0 -464 -194q-160 -183 -160 -483q0 -295 200 -494t495 -199q277 0 277 110v350q0 85 -70 96l-8 45l307 47z" />
    <glyph glyph-name="H" unicode="H" horiz-adv-x="1644" 
d="M1473 0h-327v46q53 19 68 72q8 28 8 106v521h-785v-531q0 -150 63 -168v-46h-320v46q52 18 67 80q8 32 8 113v985q0 125 -4 154q-11 80 -65 95v41h314v-41q-42 -16 -55 -65q-8 -30 -8 -103v-450h785v450q0 165 -70 168v41h321v-41q-57 -26 -63 -95q-5 -56 -5 -154v-985
q0 -83 6 -111q14 -65 62 -82v-46z" />
    <glyph glyph-name="I" unicode="I" horiz-adv-x="734" 
d="M534 1473q-71 -27 -71 -132q0 -21 -2 -62.5t-2 -63.5l2 -1038q0 -53 11 -80q15 -36 60 -53v-44h-332v44q63 22 75 133q2 19 2 92v946q0 31 -3 126q-3 100 -70 132v41h330v-41z" />
    <glyph glyph-name="J" unicode="J" horiz-adv-x="1023" 
d="M863 1473q-66 -26 -68 -136l-2 -126v-763q0 -200 -114 -329q-119 -134 -317 -134q-173 0 -352 117q4 106 59 242q22 -6 50 -19q0 -103 67 -163t171 -60q254 0 254 335v900q0 101 -74 136v41h326v-41z" />
    <glyph glyph-name="K" unicode="K" horiz-adv-x="1416" 
d="M1416 76q-30 -22 -111 -48q-35 -11 -109 -28q-64 44 -117 104l-306 347q-214 243 -328 350l451 488q121 131 139 225h242v-49q-53 1 -126 -72q-17 -17 -161 -175l-350 -384q79 -78 256 -279l244 -275q105 -113 141 -133q67 -37 122 -30zM518 1472q-68 -26 -77 -134
q-5 -59 -5 -126v-943q0 -44 5 -104q8 -100 65 -119v-46h-326v45q65 34 69 123l5 101v943q0 28 -3 126q-3 105 -67 135v41h334v-42z" />
    <glyph glyph-name="L" unicode="L" horiz-adv-x="1120" 
d="M1114 221q-9 -59 -37 -128q-33 -81 -66 -93q-39 -14 -129 -11l-135 6q-30 1 -142 4q-118 4 -189 4q-38 0 -113 -1.5t-113 -1.5v45q82 9 82 224v946q0 30 -3 126q-3 101 -68 132v41h330v-41q-74 -28 -74 -132q0 -21 -1.5 -63t-1.5 -63v-946q0 -108 88 -143q53 -21 184 -21
h96q108 0 159 31q36 22 88 99q18 -5 45 -14z" />
    <glyph glyph-name="M" unicode="M" horiz-adv-x="2007" 
d="M1827 0h-324v47q63 27 63 148q0 27 -2 56l-70 1013l-515 -1264h-30q-210 551 -514 1284l-48 -998q-5 -106 -2 -134q9 -85 65 -105v-47h-300v47q68 23 90 107q8 33 15 149l49 869q8 142 8 176q0 120 -65 126v40h286l462 -1166l471 1166h292v-40q-86 -27 -86 -193
q0 -25 2 -54l65 -955q14 -209 88 -224v-48z" />
    <glyph glyph-name="N" unicode="N" horiz-adv-x="1718" 
d="M1578 1470q-89 -7 -89 -279v-1191h-31q-52 34 -62 42q-52 42 -112 117l-869 1091v-1001q0 -93 8 -123q17 -65 81 -82v-44h-299v44q59 20 75 78q9 32 9 127v1120q-40 78 -119 101v44h267l926 -1162v866q0 119 -9 164q-18 88 -76 88v44h300v-44z" />
    <glyph glyph-name="O" unicode="O" horiz-adv-x="1696" 
d="M1596 800q0 -361 -187 -590q-202 -248 -561 -248q-344 0 -550 233q-198 224 -198 572q0 349 205 571q212 229 558 229q325 0 536 -238q197 -223 197 -529zM1396 746q0 243 -136 455q-161 251 -416 251q-268 0 -416 -198q-131 -175 -131 -441q0 -256 142 -478
q164 -256 416 -256q286 0 426 211q115 173 115 456z" />
    <glyph glyph-name="P" unicode="P" horiz-adv-x="1196" 
d="M1146 1117q0 -192 -126.5 -321.5t-318.5 -129.5q-148 0 -262 56v-416q0 -107 5 -143q14 -98 67 -113v-50h-331v43q50 9 67 87q10 47 10 167v966q0 202 -63 212v43q31 0 93 -1t93 -1q47 0 141 5t141 5q184 0 304 -68q180 -102 180 -341zM967 1095q0 159 -106 250
q-100 85 -262 85q-55 0 -154 -9q-6 -130 -6 -219v-388q92 -45 203 -45q325 0 325 326z" />
    <glyph glyph-name="Q" unicode="Q" horiz-adv-x="1676" 
d="M1857 -220q-49 -53 -74 -68q-46 -27 -123 -28q-102 -1 -258 121q-198 156 -321 214v0q-135 -41 -252 -41q-336 0 -542 229q-197 220 -197 560q0 349 200 568q206 228 552 228q324 0 530 -240q190 -221 192 -532q1 -224 -88 -411q-94 -198 -260 -300q103 -22 185 -72
q19 -12 138 -98q153 -111 219 -111q10 0 73 12zM1370 745q0 258 -138 467q-158 239 -403 239q-256 0 -405 -198q-135 -180 -135 -442q0 -269 139 -484q159 -245 411 -245q267 0 409 206q122 177 122 457z" />
    <glyph glyph-name="R" unicode="R" horiz-adv-x="1453" 
d="M1452 68q-48 -26 -110 -45q-28 -8 -114 -23q-63 46 -118 123l-270 373q-57 79 -123 117q-40 23 -103 23h-186v-364q0 -210 82 -227v-45h-330v44q67 20 67 251v956q0 96 -5 126q-13 76 -62 96v42l188 -1q47 0 140.5 6.5t139.5 6.5q500 0 500 -416q0 -133 -84 -248
q-78 -106 -205 -166q78 -42 164 -159l253 -346q61 -84 126 -84q14 0 36 3zM972 1067q0 359 -374 359q-50 0 -164 -8q-6 -81 -6 -246v-435h208q154 0 245 89t91 241z" />
    <glyph glyph-name="S" unicode="S" horiz-adv-x="1107" 
d="M1000 416q0 -206 -134 -324q-128 -113 -336 -113q-178 0 -364 94q-24 68 -36 222l50 13q58 -92 117 -133q117 -82 257 -82q126 0 193 81q63 76 63 204q0 112 -94 207q-57 57 -207 149q-180 110 -241 174q-103 107 -103 264q0 175 134 282q124 100 303 100q53 0 187 -28
q125 -26 162 -23v-217h-44q-15 29 -58 72q-88 87 -238 87q-99 0 -178 -61q-91 -71 -91 -185q0 -104 87 -179q28 -24 223 -145q167 -104 233 -174q115 -123 115 -285z" />
    <glyph glyph-name="T" unicode="T" horiz-adv-x="1274" 
d="M1264 1517l-59 -219l-50 11q-31 82 -135 83l-292 4v-1086q0 -97 1 -130q2 -61 19 -87t71 -47v-46h-370v46q87 31 97 134v130v1088l-294 3q-146 1 -181 -79l-51 19q17 59 51 201q78 -31 220 -32l695 -7q142 -1 172 5q9 2 71 37z" />
    <glyph glyph-name="U" unicode="U" horiz-adv-x="1606" 
d="M1436 4h-255v176q-129 -192 -424 -192q-193 0 -340 105q-191 137 -191 401v721q0 42 -3 126q-4 107 -73 132v41h324v-41q-65 -27 -65 -132q0 -21 -1 -64t-1 -62l-1 -668q0 -204 95 -318q101 -122 298 -122q229 0 384 227v881q0 61 -2 126q-3 103 -74 132v41h321v-41
q-62 -24 -62 -132q0 -21 -1 -63t-1 -63v-970q0 -81 6 -107q14 -59 66 -88v-46z" />
    <glyph glyph-name="V" unicode="V" horiz-adv-x="1378" 
d="M1358 1514l-1 -53q-23 -9 -61 -36q-70 -84 -111 -195l-458 -1241h-47q-316 842 -511 1264q-22 50 -80 167q-17 18 -59 41v53h340v-50q-41 -23 -41 -57q0 -44 31 -126q133 -351 371 -922q300 772 345 928q19 65 19 113q0 42 -59 61v53h322z" />
    <glyph glyph-name="W" unicode="W" horiz-adv-x="1937" 
d="M1916 1465q-28 -10 -43 -20q-30 -20 -41 -52q-29 -85 -169 -608q-144 -536 -225 -787h-48l-440 1221q-117 -417 -397 -1221h-52q-95 328 -327 1253q-15 61 -25 93q-20 65 -37 82q-32 33 -62 39v49h322v-49q-46 -26 -46 -58t25 -140l210 -873l371 1120h91l397 -1144
q253 911 253 1008q0 84 -64 87v49h307v-49z" />
    <glyph glyph-name="X" unicode="X" horiz-adv-x="1324" 
d="M1314 47l-1 -47h-312q1 60 -12 99q-8 24 -45 92q-75 139 -308 498l-296 -498q-40 -68 -49 -116q-7 -36 -5 -75h-266v43q78 8 151 120l394 633q0 7 -352 570q-62 99 -130 99v49h292q-11 -57 30 -125l283 -460q135 216 278 477q24 44 10 108h272v-49q-22 -2 -77 -28
q-30 -20 -95 -97l-312 -520l446 -702q48 -72 104 -71z" />
    <glyph glyph-name="Y" unicode="Y" horiz-adv-x="1327" 
d="M1317 1467q-90 -18 -166 -126l-388 -551v-528q0 -162 13 -182q18 -27 56 -32v-48h-322v48q29 4 55 32q17 18 17 182v526l-402 547q-46 61 -79 93q-37 36 -71 40v46h277q-1 -57 80 -173l314 -432q165 222 307 433q57 85 57 172h252v-47z" />
    <glyph glyph-name="Z" unicode="Z" horiz-adv-x="1421" 
d="M1391 224q-17 -50 -60 -124q-52 -91 -83 -100q-73 -20 -266 -7q-244 16 -553 11q-84 0 -339 -4v46l931 1340h-644q-111 0 -142 -14q-24 -11 -76 -59l-37 20q20 68 52 198q36 -9 107 -22q92 -7 123 -7h874v-58l-920 -1320l638 1q147 0 197 12q92 22 157 108z" />
    <glyph glyph-name="bracketleft" unicode="[" horiz-adv-x="710" 
d="M592 -505h-416v2138h416v-85l-115 9q-89 -1 -119 -48q-24 -38 -24 -139q0 -20 1 -77q1 -33 0 -90l-6 -588l6 -748q1 -163 7 -189q24 -99 128 -99q83 0 122 10v-94z" />
    <glyph glyph-name="backslash" unicode="\" horiz-adv-x="1157" 
d="M1038 -41h-131l-777 1616h131z" />
    <glyph glyph-name="bracketright" unicode="]" horiz-adv-x="710" 
d="M544 -505h-416v94q39 -10 122 -10q87 0 110 48q25 53 25 240v1336v90l1 77q0 101 -24 139q-30 47 -119 48q8 0 -115 -9v85h416v-2138z" />
    <glyph glyph-name="underscore" unicode="_" horiz-adv-x="1034" 
d="M1046 -266h-1048v104h1048v-104z" />
    <glyph glyph-name="grave" unicode="`" horiz-adv-x="692" 
d="M553 1168h-103l-329 326h218z" />
    <glyph glyph-name="a" unicode="a" horiz-adv-x="1142" 
d="M1038 48l-2 -46h-238v136q-83 -91 -169 -123q-76 -29 -210 -29q-120 0 -214.5 89.5t-94.5 206.5q0 383 691 383q0 154 -19 208q-55 156 -253 156q-97 0 -185 -40q-69 -33 -98 -69q-30 -39 -38 -79h-46v172q178 124 394 124q402 0 402 -430v-512q0 -147 80 -147zM796 255
v297h-115q-154 0 -260 -48q-139 -64 -139 -196q0 -89 58 -144t155 -55q160 0 301 146z" />
    <glyph glyph-name="b" unicode="b" horiz-adv-x="1268" 
d="M1177 596q0 -242 -153 -417q-160 -183 -398 -183q-52 0 -155.5 4t-155.5 4q-24 0 -107 -3q-60 -2 -88 -1v44q52 11 70 91q12 54 12 195v1057q0 193 -77 228v46h251q-1 -20 -5 -85q-1 -19 -1 -192v-367q101 61 155 81q83 31 195 31q233 0 355 -170q102 -143 102 -363z
M1004 600q0 160 -81 273q-98 136 -281 136q-130 0 -272 -114v-598q0 -202 246 -202q201 0 307 185q81 142 81 320z" />
    <glyph glyph-name="c" unicode="c" horiz-adv-x="1135" 
d="M1098 229q-26 -113 -74 -193q-118 -45 -316 -45q-244 0 -413 147q-187 162 -187 432q0 240 165.5 400t406.5 160q55 0 137 -14q110 -18 136 -21q39 -4 76 -1l6 -214l-34 -7q-49 66 -107 98q-87 47 -208 47q-194 0 -306 -138q-96 -117 -96 -272q0 -251 161 -391
q136 -118 329 -118q128 0 201 56q45 35 72 84z" />
    <glyph glyph-name="d" unicode="d" horiz-adv-x="1336" 
d="M1201 0h-249v130q-127 -141 -318 -141q-253 0 -402 177q-132 157 -132 375q0 224 147 398q161 191 406 191q74 0 166 -34q107 -39 133 -94v474q0 112 -63 138l-1 47h240q-8 -195 -8 -238v-1205q0 -87 6 -110q16 -61 75 -65v-43zM952 273v590q-25 45 -109 91
q-95 52 -184 52q-187 0 -291 -130q-95 -119 -95 -310q0 -164 82 -290q107 -164 310 -164q70 0 148 37q95 45 139 124z" />
    <glyph glyph-name="e" unicode="e" horiz-adv-x="1215" 
d="M1124 547h-842q0 -198 119 -323q121 -128 322 -128q113 0 199 35q64 26 122 109q12 -9 38 -25q-25 -95 -58 -146q-116 -85 -342 -85q-267 0 -426 168q-156 164 -156 433q0 226 151 391q156 170 380 170q240 0 374 -186q119 -165 119 -413zM940 653q0 152 -88 261
q-94 117 -243 117q-139 0 -236 -122q-92 -114 -92 -256h659z" />
    <glyph glyph-name="f" unicode="f" horiz-adv-x="720" 
d="M830 1566q-15 -80 -51 -190l-35 13q6 74 -41 120.5t-122 46.5q-181 0 -181 -261v-210h299l-44 -103h-255v-750q0 -86 24 -125q29 -47 109 -59v-48h-382v47q40 9 57 30q24 29 24 157v748h-132v48q107 30 132 124v52q0 190 72 309q88 146 266 146q127 0 260 -95z" />
    <glyph glyph-name="g" unicode="g" horiz-adv-x="1289" 
d="M1248 1095l-53 -120h-232q47 -62 61 -92q22 -50 22 -123q0 -180 -117.5 -285t-309.5 -105q-85 0 -149 18q-81 -55 -81 -122q0 -80 157 -129q42 -13 200 -37q150 -22 207 -43q83 -31 132.5 -98.5t49.5 -151.5q0 -188 -174 -281q-138 -74 -342 -74q-199 0 -336 70
q-173 89 -173 266q0 127 179 222l43 -24l-56 -69q-37 -52 -37 -90q0 -265 439 -265q111 0 202 48q114 61 114 166q0 116 -147 162q-34 10 -266 44q-125 18 -212 65q-122 66 -122 169q0 59 40 109q24 29 97 90q-218 131 -218 345q0 181 123 286q118 101 314 101
q118 0 214 -52h431zM878 772q-5 118 -84.5 196.5t-197.5 78.5q-112 0 -185.5 -79t-73.5 -191q0 -141 83 -223t224 -82q112 0 178 93q61 86 56 207z" />
    <glyph glyph-name="h" unicode="h" horiz-adv-x="1239" 
d="M1158 0h-333v46q85 5 85 210v399q0 175 -36 243q-55 105 -199 105q-83 0 -167 -51q-80 -49 -127 -121v-547q0 -116 7 -146q19 -82 94 -92v-46h-353v46q54 8 71 62q14 45 14 174v1079q0 171 -17 198q-25 39 -62 49v53h246v-688q144 163 364 163q87 0 175 -60
q72 -49 103 -104q53 -93 53 -254v-559q0 -96 82 -113v-46z" />
    <glyph glyph-name="i" unicode="i" horiz-adv-x="631" 
d="M439 1470q0 -56 -40 -95.5t-96 -39.5t-95.5 39.5t-39.5 95.5t39.5 95.5t95.5 39.5t96 -39.5t40 -95.5zM501 0h-361v45q106 3 106 173v568q0 134 -14 183q-19 68 -79 83v53h271q-10 -82 -10 -286v-602q0 -159 87 -172v-45z" />
    <glyph glyph-name="j" unicode="j" horiz-adv-x="647" 
d="M480 1470q0 -56 -39.5 -95.5t-95.5 -39.5t-95.5 39.5t-39.5 95.5t39.5 95.5t95.5 39.5t95.5 -39.5t39.5 -95.5zM506 1057q-52 -8 -65 -70q-5 -22 -5 -107v-732q0 -98 -4 -168q-21 -362 -325 -362q-123 0 -217 77q5 90 40 194l49 -14q-2 -144 137 -144q87 0 123 83
q23 54 30 167v165v734q0 81 -8 110q-16 61 -72 68v47h317v-48z" />
    <glyph glyph-name="k" unicode="k" horiz-adv-x="1205" 
d="M1210 45q-97 -58 -242 -56q-196 212 -536 640q108 96 353 338q54 58 76 139h259v-52q-69 -8 -176 -104q-64 -58 -325 -314l344 -412q81 -98 145 -125q26 -11 94 -13q9 -42 8 -41zM497 0h-367v44q105 3 105 266v1097q0 120 -24 162q-18 32 -61 47q2 12 0 44h256l-4 -134
v-1222q0 -143 8 -177q18 -75 87 -80v-47z" />
    <glyph glyph-name="l" unicode="l" horiz-adv-x="647" 
d="M517 0h-367v44q103 3 103 266v1097q0 124 -21 162q-17 31 -64 47q2 12 0 44h258l-4 -134l-1 -1222q0 -138 9 -177q17 -75 87 -80v-47z" />
    <glyph glyph-name="m" unicode="m" horiz-adv-x="1955" 
d="M1874 0h-367v48q73 13 92 106q7 35 7 158v388q0 153 -53 222q-60 78 -199 78q-141 0 -273 -107v-681q0 -161 77 -164v-48h-340v48q66 6 86 93q10 43 10 156v410q0 153 -34 208q-53 85 -209 85q-134 0 -282 -139v-564q0 -120 9 -160q18 -80 81 -89v-48h-349v48
q91 13 91 153v654q0 103 -5 122q-14 52 -78 79v49h251q1 -99 0 -127q160 153 354 153q113 0 200 -50q72 -41 103 -101q162 157 383 157q145 0 244.5 -94t99.5 -238v-503q0 -112 9 -152q20 -90 92 -102v-48z" />
    <glyph glyph-name="n" unicode="n" horiz-adv-x="1241" 
d="M1161 0h-332v46q82 5 82 210v400q0 173 -36 243q-55 106 -196 106q-79 0 -164.5 -49.5t-132.5 -117.5v-554q0 -116 7 -146q19 -82 94 -92v-46h-352v46q54 8 70 62q14 46 14 174v508q0 190 -24 222q-13 17 -19 22q-11 9 -42 18v53h253v-131q143 163 365 163q87 0 175 -60
q73 -49 103 -104q52 -93 52 -254v-560q0 -96 83 -113v-46z" />
    <glyph glyph-name="o" unicode="o" horiz-adv-x="1287" 
d="M1197 584q0 -279 -137 -439q-146 -172 -420 -172q-232 0 -389 177q-151 170 -151 405q0 257 141 424q152 180 412 180q246 0 397 -166q147 -160 147 -409zM1019 553q0 180 -94 323q-109 167 -292 167q-219 0 -306 -210q-48 -114 -48 -256q0 -183 100 -327
q116 -165 307 -165q210 0 290 209q43 111 43 259z" />
    <glyph glyph-name="p" unicode="p" horiz-adv-x="1275" 
d="M1185 589q0 -246 -150 -414q-154 -173 -394 -173q-158 0 -264 96v-406q0 -145 133 -158v-46h-389v46q89 34 89 147v1181q0 176 -94 176l-6 40q131 47 244 64q23 -62 23 -149q65 64 118 92q96 51 230 51q233 0 356 -177q104 -149 104 -370zM1012 588q0 164 -72 274
q-90 137 -271 137q-156 0 -292 -141v-640q106 -99 254 -99q202 0 303 166q78 129 78 303z" />
    <glyph glyph-name="q" unicode="q" horiz-adv-x="1246" 
d="M1144 -510h-332v46q90 5 90 210v360q-63 -60 -110 -82q-80 -38 -206 -38q-235 0 -369 170q-117 149 -117 363q0 233 160 410q170 189 422 189q91 0 295 -20q35 0 123 9q-31 -119 -31 -253l-1 -1114q0 -100 8 -133q15 -60 68 -71v-46zM910 978q-122 26 -219 26
q-217 0 -329 -167q-89 -133 -89 -322q0 -155 85 -271q101 -138 280 -138q68 0 153 44q72 37 111 78v578q0 93 8 172z" />
    <glyph glyph-name="r" unicode="r" horiz-adv-x="830" 
d="M819 894h-43q0 40 -30.5 65t-71.5 25q-106 0 -281 -185l-1 -595q0 -162 134 -162l1 -42h-390v42q89 41 89 151v669q0 176 -90 176l-6 40q135 49 238 64q23 -94 23 -222q50 81 155 148q116 74 220 74q21 0 53 -12v-236z" />
    <glyph glyph-name="s" unicode="s" horiz-adv-x="880" 
d="M800 319q0 -341 -406 -341q-38 0 -106 15q-78 17 -117 39q-43 131 -43 228l55 9q24 -78 85 -128q64 -54 143 -54q104 0 164.5 51t60.5 146q0 74 -80 148q-15 14 -162 112q-71 46 -168 116q-99 93 -99 205q0 151 115 230q95 65 210 65q74 0 141 -20q24 -10 67 -24
q49 -13 70 -6l6 -190l-47 -9q-15 50 -79.5 97t-142.5 47q-62 0 -113 -30q-63 -37 -63 -121q0 -68 105 -150q95 -59 278 -186q19 -15 30 -25q96 -92 96 -224z" />
    <glyph glyph-name="t" unicode="t" horiz-adv-x="762" 
d="M685 1085q-11 -21 -44 -101h-257v-680q0 -99 15 -141q28 -75 113 -75t118 89l52 -32q-26 -78 -63 -112q-54 -50 -157 -50q-246 0 -246 312v689h-116v49q32 0 84 32q48 29 74 59q38 44 65 177q24 1 61 5v-221h301z" />
    <glyph glyph-name="u" unicode="u" horiz-adv-x="1241" 
d="M1150 0h-249v137q-116 -153 -359 -153q-86 0 -176 61q-73 50 -104 105q-53 95 -53 254v459q0 90 -7 115q-15 55 -76 60l-6 40q94 34 231 54q24 -58 24 -212v-453q0 -174 36 -243q26 -49 86 -81q57 -29 116 -29q77 0 159.5 45t127.5 109v595q0 96 -8 123q-16 53 -73 52
l-6 40q104 37 230 56q25 -66 25 -239v-580q0 -190 24 -222q8 -11 18 -21.5t40 -18.5v-53z" />
    <glyph glyph-name="v" unicode="v" horiz-adv-x="1059" 
d="M1054 1048q-44 -5 -71 -36q-23 -26 -61 -132l-335 -888h-54l-393 929l-38 77q-33 48 -82 48v54h364v-53q-27 -2 -46.5 -24.5t-19.5 -49.5q0 -50 17 -90l240 -610q130 328 229 605q19 53 19 81q0 76 -74 87v54h305v-52z" />
    <glyph glyph-name="w" unicode="w" horiz-adv-x="1481" 
d="M1471 1051q-24 -5 -69 -30q-26 -23 -41 -80l-259 -947h-71l-299 848q-97 -298 -261 -848h-73l-278 983q-18 60 -90 67v56h330v-56q-62 -6 -62 -63q0 -44 16 -105q38 -145 153 -552l246 776h97q198 -588 278 -794l134 515q27 107 27 138q0 69 -83 91v50h305v-49z" />
    <glyph glyph-name="x" unicode="x" horiz-adv-x="1042" 
d="M1042 0h-293q7 55 -6 88q-31 77 -109 203l-126 195l-183 -285q-26 -40 -57 -124q-4 -26 -4 -45q0 -20 4 -32h-253v47q67 0 136 103l288 433q-108 167 -247 360q-58 80 -132 104v53h285q-11 -35 -11 -54q0 -32 38 -89l169 -256l176 266q27 42 32 71q4 22 -6 62h223v-49
q-37 -3 -70 -32q-47 -41 -79 -90l-210 -328l263 -404q32 -50 84 -110q29 -23 88 -40v-47z" />
    <glyph glyph-name="y" unicode="y" horiz-adv-x="1150" 
d="M1138 1049q-52 -10 -72 -31q-27 -28 -66 -137q-231 -638 -346 -904q-54 -131 -137 -300q-97 -133 -273 -133q-137 0 -234 103q2 68 46 195l45 -13q13 -86 29 -111q31 -49 122 -49q90 0 160 87q75 93 150 309q-170 422 -377 856q-34 71 -50 89q-28 31 -77 36v54h376v-53
q-27 -2 -46.5 -24.5t-19.5 -49.5q0 -44 19 -90l257 -634q154 378 226 626q24 82 24 96q0 65 -69 76v54h313v-52z" />
    <glyph glyph-name="z" unicode="z" horiz-adv-x="1062" 
d="M1022 202q-45 -142 -97 -202q-65 -2 -261 3l-246 5q-270 0 -328 -8v67l657 926h-406q-44 0 -95 -25q-56 -28 -71 -65q-50 22 -49 23l41 194q47 -26 197 -26h586l2 -72l-642 -914h394q116 0 160 16q67 24 106 107z" />
    <glyph glyph-name="braceleft" unicode="{" horiz-adv-x="910" 
d="M793 -493l-110 -1q-229 -2 -229 412v45q0 10 1 21v11v397q0 74 -39.5 116.5t-112.5 36.5q1 57 0 69q91 2 124 62q28 50 28 175v516q0 114 56 185q61 77 172 77q28 0 97 -9v-68q-89 0 -123.5 -33t-34.5 -122v-474q0 -328 -167 -348q167 -44 167 -268v-595q0 -143 171 -143
v-62z" />
    <glyph glyph-name="bar" unicode="|" horiz-adv-x="1012" 
d="M569 -384h-118v2175h118v-2175z" />
    <glyph glyph-name="braceright" unicode="}" horiz-adv-x="910" 
d="M617 545q-73 6 -112.5 -36.5t-39.5 -116.5v-397v-11q1 -11 1 -21v-45q0 -412 -229 -412q-35 0 -110 1v62q171 0 171 143v595q0 224 167 268q-167 20 -167 348v474q0 89 -34.5 122t-123.5 33v68q69 9 97 9q111 0 172 -77q56 -71 56 -185v-516q0 -125 28 -175
q33 -60 124 -62q-1 -12 0 -69z" />
    <glyph glyph-name="asciitilde" unicode="~" horiz-adv-x="2058" 
d="M1174 761q-37 -108 -90 -192q-77 -122 -173 -122q-95 0 -279.5 44t-279.5 44q-64 0 -106 -44q-26 -27 -59 -95h-80q19 84 92 193q79 118 168 118q93 0 279.5 -47t280.5 -47q74 0 175 148h72z" />
    <glyph glyph-name="Adieresis" unicode="&#xc4;" horiz-adv-x="1481" 
d="M1481 0h-326q5 47 5 83q0 50 -27 128l-91 258h-621q-50 -127 -93 -267q-16 -52 -16 -95q0 -95 1 -107h-283v46q66 14 113 86q25 38 62 133l490 1265h128l481 -1222q49 -125 70 -163q48 -87 107 -97v-48zM1005 576l-282 708l-266 -708h548zM1021 1773q0 -41 -28 -70
t-69 -29q-40 0 -69.5 29.5t-29.5 69.5t29.5 68.5t69.5 28.5q41 0 69 -28t28 -69zM683 1773q0 -40 -29.5 -69.5t-69.5 -29.5q-41 0 -69 29t-28 70t28 69t69 28q40 0 69.5 -28.5t29.5 -68.5z" />
    <glyph glyph-name="Aring" unicode="&#xc5;" horiz-adv-x="1481" 
d="M1481 0h-326q5 47 5 83q0 50 -27 128l-91 258h-621q-50 -127 -93 -267q-16 -52 -16 -95q0 -95 1 -107h-283v46q66 14 113 86q25 38 62 133l490 1265h128l481 -1222q49 -125 70 -163q48 -87 107 -97v-48zM1005 576l-282 708l-266 -708h548zM949 1719q0 -79 -56 -135.5
t-135 -56.5q-80 0 -136 56.5t-56 135.5q0 80 56.5 136t135.5 56t135 -56t56 -136zM875 1720q0 48 -35 82t-82 34q-48 0 -83 -33.5t-35 -82.5t34.5 -83t83.5 -34q48 0 82.5 34.5t34.5 82.5z" />
    <glyph glyph-name="Ccedilla" unicode="&#xc7;" horiz-adv-x="1541" 
d="M1453 240q-4 -36 -20 -103q-6 -24 -29 -87q-183 -71 -463 -71q-357 0 -593 205q-248 216 -248 568q0 454 333 665q219 139 477 139q137 0 352 -40q113 -21 152 -21v-212l-45 -3q-19 52 -88 88q-150 78 -369 78q-287 0 -454 -198q-157 -186 -157 -479q0 -288 225 -488
q211 -187 477 -187q187 0 306 53q47 21 99 105zM1083 -241q0 -70 -78 -123.5t-175 -53.5q-21 0 -41 3q17 42 17 46q9 -1 17 -1q52 0 93 27q46 31 46 82q0 87 -135 87l79 171q109 -4 125 0l-61 -128q52 0 84 -36q29 -32 29 -74z" />
    <glyph glyph-name="Eacute" unicode="&#xc9;" horiz-adv-x="1214" 
d="M1131 210q-13 -55 -43 -113q-35 -68 -53 -80q-37 -24 -239 -24q-64 0 -192.5 6.5t-192.5 6.5q-37 0 -110.5 -3t-110.5 -3v45q62 7 74 118q1 9 1 160v919q0 103 -5 135q-14 88 -67 90v42h583q132 0 157 3q50 6 81 35l27 -21l-56 -203l-36 9q0 76 -154 76h-343
q-6 -56 -6 -141v-409h360q137 0 173 47l35 -12l-57 -225l-36 4q-3 79 -138 79h-337v-513q0 -103 116 -131q46 -11 199 -11q134 0 200 19q52 15 136 109q13 -5 34 -14zM872 1986l-329 -326h-103l214 326h218z" />
    <glyph glyph-name="Ntilde" unicode="&#xd1;" horiz-adv-x="1718" 
d="M1588 1470q-89 -7 -89 -279v-1191h-31q-52 34 -62 42q-52 42 -112 117l-869 1091v-1001q0 -93 8 -123q17 -65 81 -82v-44h-299v44q59 20 75 78q9 32 9 127v1120q-40 78 -119 101v44h267l926 -1162v866q0 119 -9 164q-18 88 -76 88v44h300v-44zM1193 1892
q-18 -76 -58 -136q-53 -77 -119 -77q-45 0 -133.5 39t-126.5 39q-75 0 -116 -88h-55q65 207 207 207q40 0 117.5 -37.5t117.5 -37.5q74 0 115 91h51z" />
    <glyph glyph-name="Odieresis" unicode="&#xd6;" horiz-adv-x="1667" 
d="M1606 800q0 -361 -187 -590q-202 -248 -561 -248q-344 0 -550 233q-198 224 -198 572q0 349 205 571q212 229 558 229q325 0 536 -238q197 -223 197 -529zM1406 746q0 243 -136 455q-161 251 -416 251q-268 0 -416 -198q-131 -175 -131 -441q0 -256 142 -478
q164 -256 416 -256q286 0 426 211q115 173 115 456zM1091 1770q0 -41 -28 -70t-69 -29q-40 0 -69.5 29.5t-29.5 69.5t29.5 68.5t69.5 28.5q41 0 69 -28t28 -69zM753 1770q0 -40 -29.5 -69.5t-69.5 -29.5q-41 0 -69 29t-28 70t28 69t69 28q40 0 69.5 -28.5t29.5 -68.5z" />
    <glyph glyph-name="Udieresis" unicode="&#xdc;" horiz-adv-x="1596" 
d="M1446 4h-255v176q-129 -192 -424 -192q-193 0 -340 105q-191 137 -191 401v721q0 42 -3 126q-4 107 -73 132v41h324v-41q-65 -27 -65 -132q0 -21 -1 -64t-1 -62l-1 -668q0 -204 95 -318q101 -122 298 -122q229 0 384 227v881q0 61 -2 126q-3 103 -74 132v41h321v-41
q-62 -24 -62 -132q0 -21 -1 -63t-1 -63v-970q0 -81 6 -107q14 -59 66 -88v-46zM1056 1769q0 -41 -28 -70t-69 -29q-40 0 -69.5 29.5t-29.5 69.5t29.5 68.5t69.5 28.5q41 0 69 -28t28 -69zM718 1769q0 -40 -29.5 -69.5t-69.5 -29.5q-41 0 -69 29t-28 70t28 69t69 28
q40 0 69.5 -28.5t29.5 -68.5z" />
    <glyph glyph-name="aacute" unicode="&#xe1;" horiz-adv-x="1142" 
d="M1048 48l-2 -46h-238v136q-83 -91 -169 -123q-76 -29 -210 -29q-120 0 -214.5 89.5t-94.5 206.5q0 383 691 383q0 154 -19 208q-55 156 -253 156q-97 0 -185 -40q-69 -33 -98 -69q-30 -39 -38 -79h-46v172q178 124 394 124q402 0 402 -430v-512q0 -147 80 -147zM806 255
v297h-115q-154 0 -260 -48q-139 -64 -139 -196q0 -89 58 -144t155 -55q160 0 301 146zM864 1585l-329 -326h-103l214 326h218z" />
    <glyph glyph-name="agrave" unicode="&#xe0;" horiz-adv-x="1142" 
d="M1048 48l-2 -46h-238v136q-83 -91 -169 -123q-76 -29 -210 -29q-120 0 -214.5 89.5t-94.5 206.5q0 383 691 383q0 154 -19 208q-55 156 -253 156q-97 0 -185 -40q-69 -33 -98 -69q-30 -39 -38 -79h-46v172q178 124 394 124q402 0 402 -430v-512q0 -147 80 -147zM806 255
v297h-115q-154 0 -260 -48q-139 -64 -139 -196q0 -89 58 -144t155 -55q160 0 301 146zM713 1349h-103l-329 326h218z" />
    <glyph glyph-name="acircumflex" unicode="&#xe2;" horiz-adv-x="1142" 
d="M1048 48l-2 -46h-238v136q-83 -91 -169 -123q-76 -29 -210 -29q-120 0 -214.5 89.5t-94.5 206.5q0 383 691 383q0 154 -19 208q-55 156 -253 156q-97 0 -185 -40q-69 -33 -98 -69q-30 -39 -38 -79h-46v172q178 124 394 124q402 0 402 -430v-512q0 -147 80 -147zM806 255
v297h-115q-154 0 -260 -48q-139 -64 -139 -196q0 -89 58 -144t155 -55q160 0 301 146zM798 1361h-81l-167 191l-169 -191h-79l216 323h62z" />
    <glyph glyph-name="adieresis" unicode="&#xe4;" horiz-adv-x="1142" 
d="M1048 48l-2 -46h-238v136q-83 -91 -169 -123q-76 -29 -210 -29q-120 0 -214.5 89.5t-94.5 206.5q0 383 691 383q0 154 -19 208q-55 156 -253 156q-97 0 -185 -40q-69 -33 -98 -69q-30 -39 -38 -79h-46v172q178 124 394 124q402 0 402 -430v-512q0 -147 80 -147zM806 255
v297h-115q-154 0 -260 -48q-139 -64 -139 -196q0 -89 58 -144t155 -55q160 0 301 146zM840 1506q0 -41 -28 -70t-69 -29q-40 0 -69.5 29.5t-29.5 69.5t29.5 68.5t69.5 28.5q41 0 69 -28t28 -69zM502 1506q0 -40 -29.5 -69.5t-69.5 -29.5q-41 0 -69 29t-28 70t28 69t69 28
q40 0 69.5 -28.5t29.5 -68.5z" />
    <glyph glyph-name="atilde" unicode="&#xe3;" horiz-adv-x="1142" 
d="M1048 48l-2 -46h-238v136q-83 -91 -169 -123q-76 -29 -210 -29q-120 0 -214.5 89.5t-94.5 206.5q0 383 691 383q0 154 -19 208q-55 156 -253 156q-97 0 -185 -40q-69 -33 -98 -69q-30 -39 -38 -79h-46v172q178 124 394 124q402 0 402 -430v-512q0 -147 80 -147zM806 255
v297h-115q-154 0 -260 -48q-139 -64 -139 -196q0 -89 58 -144t155 -55q160 0 301 146zM873 1603q-18 -76 -58 -136q-53 -77 -119 -77q-45 0 -133.5 39t-126.5 39q-75 0 -116 -88h-55q65 207 207 207q40 0 117.5 -37.5t117.5 -37.5q74 0 115 91h51z" />
    <glyph glyph-name="aring" unicode="&#xe5;" horiz-adv-x="1142" 
d="M1048 48l-2 -46h-238v136q-83 -91 -169 -123q-76 -29 -210 -29q-120 0 -214.5 89.5t-94.5 206.5q0 383 691 383q0 154 -19 208q-55 156 -253 156q-97 0 -185 -40q-69 -33 -98 -69q-30 -39 -38 -79h-46v172q178 124 394 124q402 0 402 -430v-512q0 -147 80 -147zM806 255
v297h-115q-154 0 -260 -48q-139 -64 -139 -196q0 -89 58 -144t155 -55q160 0 301 146zM790 1512q0 -79 -56 -135.5t-135 -56.5q-80 0 -136 56.5t-56 135.5q0 80 56.5 136t135.5 56t135 -56t56 -136zM716 1513q0 48 -35 82t-82 34q-48 0 -83 -33.5t-35 -82.5t34.5 -83
t83.5 -34q48 0 82.5 34.5t34.5 82.5z" />
    <glyph glyph-name="ccedilla" unicode="&#xe7;" horiz-adv-x="1170" 
d="M830 -233q0 -70 -78 -123t-175 -53q-21 0 -41 3q18 41 18 46q8 -1 17 -1q51 0 92 27q47 31 47 81q0 87 -136 87q10 19 79 172q109 -5 126 0q-27 -60 -62 -129q53 0 85 -35q28 -32 28 -75zM1090 229q-26 -113 -74 -193q-118 -45 -316 -45q-244 0 -413 147
q-187 162 -187 432q0 240 165.5 400t406.5 160q55 0 137 -14q110 -18 136 -21q39 -4 76 -1l6 -214l-34 -7q-56 76 -104 102q-88 48 -210 48q-196 0 -310 -140q-96 -118 -96 -274q0 -254 162 -395q138 -120 332 -120q130 0 203 57q35 27 69 88z" />
    <glyph glyph-name="eacute" unicode="&#xe9;" horiz-adv-x="1215" 
d="M1134 547h-842q0 -198 119 -323q121 -128 322 -128q113 0 199 35q64 26 122 109q12 -9 38 -25q-25 -95 -58 -146q-116 -85 -342 -85q-267 0 -426 168q-156 164 -156 433q0 226 151 391q156 170 380 170q240 0 374 -186q119 -165 119 -413zM950 653q0 152 -88 261
q-94 117 -243 117q-139 0 -236 -122q-92 -114 -92 -256h659zM892 1678l-329 -326h-103l214 326h218z" />
    <glyph glyph-name="egrave" unicode="&#xe8;" horiz-adv-x="1215" 
d="M1134 547h-842q0 -198 119 -323q121 -128 322 -128q113 0 199 35q64 26 122 109q12 -9 38 -25q-25 -95 -58 -146q-116 -85 -342 -85q-267 0 -426 168q-156 164 -156 433q0 226 151 391q156 170 380 170q240 0 374 -186q119 -165 119 -413zM950 653q0 152 -88 261
q-94 117 -243 117q-139 0 -236 -122q-92 -114 -92 -256h659zM764 1352h-103l-329 326h218z" />
    <glyph glyph-name="ecircumflex" unicode="&#xea;" horiz-adv-x="1215" 
d="M1134 547h-842q0 -198 119 -323q121 -128 322 -128q113 0 199 35q64 26 122 109q12 -9 38 -25q-25 -95 -58 -146q-116 -85 -342 -85q-267 0 -426 168q-156 164 -156 433q0 226 151 391q156 170 380 170q240 0 374 -186q119 -165 119 -413zM950 653q0 152 -88 261
q-94 117 -243 117q-139 0 -236 -122q-92 -114 -92 -256h659zM889 1361h-81l-167 191l-169 -191h-79l216 323h62z" />
    <glyph glyph-name="edieresis" unicode="&#xeb;" horiz-adv-x="1215" 
d="M1134 547h-842q0 -198 119 -323q121 -128 322 -128q113 0 199 35q64 26 122 109q12 -9 38 -25q-25 -95 -58 -146q-116 -85 -342 -85q-267 0 -426 168q-156 164 -156 433q0 226 151 391q156 170 380 170q240 0 374 -186q119 -165 119 -413zM950 653q0 152 -88 261
q-94 117 -243 117q-139 0 -236 -122q-92 -114 -92 -256h659zM896 1509q0 -41 -28 -70t-69 -29q-40 0 -69.5 29.5t-29.5 69.5t29.5 68.5t69.5 28.5q41 0 69 -28t28 -69zM558 1509q0 -40 -29.5 -69.5t-69.5 -29.5q-41 0 -69 29t-28 70t28 69t69 28q40 0 69.5 -28.5t29.5 -68.5
z" />
    <glyph glyph-name="iacute" unicode="&#xed;" horiz-adv-x="590" 
d="M501 0h-361v45q106 3 106 173v568q0 134 -14 183q-19 68 -79 83v53h271q-10 -82 -10 -286v-602q0 -159 87 -172v-45zM644 1676l-329 -326h-103l214 326h218z" />
    <glyph glyph-name="igrave" unicode="&#xec;" horiz-adv-x="590" 
d="M501 0h-361v45q106 3 106 173v568q0 134 -14 183q-19 68 -79 83v53h271q-10 -82 -10 -286v-602q0 -159 87 -172v-45zM414 1357h-103l-329 326h218z" />
    <glyph glyph-name="icircumflex" unicode="&#xee;" horiz-adv-x="590" 
d="M501 0h-361v45q106 3 106 173v568q0 134 -14 183q-19 68 -79 83v53h271q-10 -82 -10 -286v-602q0 -159 87 -172v-45zM567 1356h-81l-167 191l-169 -191h-79l216 323h62z" />
    <glyph glyph-name="idieresis" unicode="&#xef;" horiz-adv-x="590" 
d="M501 0h-361v45q106 3 106 173v568q0 134 -14 183q-19 68 -79 83v53h271q-10 -82 -10 -286v-602q0 -159 87 -172v-45zM581 1517q0 -41 -28 -70t-69 -29q-40 0 -69.5 29.5t-29.5 69.5t29.5 68.5t69.5 28.5q41 0 69 -28t28 -69zM243 1517q0 -40 -29.5 -69.5t-69.5 -29.5
q-41 0 -69 29t-28 70t28 69t69 28q40 0 69.5 -28.5t29.5 -68.5z" />
    <glyph glyph-name="ntilde" unicode="&#xf1;" horiz-adv-x="1241" 
d="M1171 0h-332v46q82 5 82 210v400q0 173 -36 243q-55 106 -196 106q-79 0 -164.5 -49.5t-132.5 -117.5v-554q0 -116 7 -146q19 -82 94 -92v-46h-352v46q54 8 70 62q14 46 14 174v508q0 190 -24 222q-13 17 -19 22q-11 9 -42 18v53h253v-131q143 163 365 163q87 0 175 -60
q73 -49 103 -104q52 -93 52 -254v-560q0 -96 83 -113v-46zM945 1609q-18 -76 -58 -136q-53 -77 -119 -77q-45 0 -133.5 39t-126.5 39q-75 0 -116 -88h-55q65 207 207 207q40 0 117.5 -37.5t117.5 -37.5q74 0 115 91h51z" />
    <glyph glyph-name="oacute" unicode="&#xf3;" horiz-adv-x="1287" 
d="M1207 584q0 -279 -137 -439q-146 -172 -420 -172q-232 0 -389 177q-151 170 -151 405q0 257 141 424q152 180 412 180q246 0 397 -166q147 -160 147 -409zM1029 553q0 180 -94 323q-109 167 -292 167q-219 0 -306 -210q-48 -114 -48 -256q0 -183 100 -327
q116 -165 307 -165q210 0 290 209q43 111 43 259zM993 1678l-329 -326h-103l214 326h218z" />
    <glyph glyph-name="ograve" unicode="&#xf2;" horiz-adv-x="1287" 
d="M1207 584q0 -279 -137 -439q-146 -172 -420 -172q-232 0 -389 177q-151 170 -151 405q0 257 141 424q152 180 412 180q246 0 397 -166q147 -160 147 -409zM1029 553q0 180 -94 323q-109 167 -292 167q-219 0 -306 -210q-48 -114 -48 -256q0 -183 100 -327
q116 -165 307 -165q210 0 290 209q43 111 43 259zM786 1353h-103l-329 326h218z" />
    <glyph glyph-name="ocircumflex" unicode="&#xf4;" horiz-adv-x="1287" 
d="M1207 584q0 -279 -137 -439q-146 -172 -420 -172q-232 0 -389 177q-151 170 -151 405q0 257 141 424q152 180 412 180q246 0 397 -166q147 -160 147 -409zM1029 553q0 180 -94 323q-109 167 -292 167q-219 0 -306 -210q-48 -114 -48 -256q0 -183 100 -327
q116 -165 307 -165q210 0 290 209q43 111 43 259zM917 1365h-81l-167 191l-169 -191h-79l216 323h62z" />
    <glyph glyph-name="odieresis" unicode="&#xf6;" horiz-adv-x="1287" 
d="M1207 584q0 -279 -137 -439q-146 -172 -420 -172q-232 0 -389 177q-151 170 -151 405q0 257 141 424q152 180 412 180q246 0 397 -166q147 -160 147 -409zM1029 553q0 180 -94 323q-109 167 -292 167q-219 0 -306 -210q-48 -114 -48 -256q0 -183 100 -327
q116 -165 307 -165q210 0 290 209q43 111 43 259zM910 1508q0 -41 -28 -70t-69 -29q-40 0 -69.5 29.5t-29.5 69.5t29.5 68.5t69.5 28.5q41 0 69 -28t28 -69zM572 1508q0 -40 -29.5 -69.5t-69.5 -29.5q-41 0 -69 29t-28 70t28 69t69 28q40 0 69.5 -28.5t29.5 -68.5z" />
    <glyph glyph-name="otilde" unicode="&#xf5;" horiz-adv-x="1287" 
d="M1207 584q0 -279 -137 -439q-146 -172 -420 -172q-232 0 -389 177q-151 170 -151 405q0 257 141 424q152 180 412 180q246 0 397 -166q147 -160 147 -409zM1029 553q0 180 -94 323q-109 167 -292 167q-219 0 -306 -210q-48 -114 -48 -256q0 -183 100 -327
q116 -165 307 -165q210 0 290 209q43 111 43 259zM956 1608q-18 -76 -58 -136q-53 -77 -119 -77q-45 0 -133.5 39t-126.5 39q-75 0 -116 -88h-55q65 207 207 207q40 0 117.5 -37.5t117.5 -37.5q74 0 115 91h51z" />
    <glyph glyph-name="uacute" unicode="&#xfa;" horiz-adv-x="1241" 
d="M1160 0h-249v137q-116 -153 -359 -153q-86 0 -176 61q-73 50 -104 105q-53 95 -53 254v459q0 90 -7 115q-15 55 -76 60l-6 40q94 34 231 54q24 -58 24 -212v-453q0 -174 36 -243q26 -49 86 -81q57 -29 116 -29q77 0 159.5 45t127.5 109v595q0 96 -8 123q-16 53 -73 52
l-6 40q104 37 230 56q25 -66 25 -239v-580q0 -190 24 -222q8 -11 18 -21.5t40 -18.5v-53zM955 1678l-329 -326h-103l214 326h218z" />
    <glyph glyph-name="ugrave" unicode="&#xf9;" horiz-adv-x="1241" 
d="M1160 0h-249v137q-116 -153 -359 -153q-86 0 -176 61q-73 50 -104 105q-53 95 -53 254v459q0 90 -7 115q-15 55 -76 60l-6 40q94 34 231 54q24 -58 24 -212v-453q0 -174 36 -243q26 -49 86 -81q57 -29 116 -29q77 0 159.5 45t127.5 109v595q0 96 -8 123q-16 53 -73 52
l-6 40q104 37 230 56q25 -66 25 -239v-580q0 -190 24 -222q8 -11 18 -21.5t40 -18.5v-53zM772 1352h-103l-329 326h218z" />
    <glyph glyph-name="ucircumflex" unicode="&#xfb;" horiz-adv-x="1241" 
d="M1160 0h-249v137q-116 -153 -359 -153q-86 0 -176 61q-73 50 -104 105q-53 95 -53 254v459q0 90 -7 115q-15 55 -76 60l-6 40q94 34 231 54q24 -58 24 -212v-453q0 -174 36 -243q26 -49 86 -81q57 -29 116 -29q77 0 159.5 45t127.5 109v595q0 96 -8 123q-16 53 -73 52
l-6 40q104 37 230 56q25 -66 25 -239v-580q0 -190 24 -222q8 -11 18 -21.5t40 -18.5v-53zM895 1354h-81l-167 191l-169 -191h-79l216 323h62z" />
    <glyph glyph-name="udieresis" unicode="&#xfc;" horiz-adv-x="1241" 
d="M1160 0h-249v137q-116 -153 -359 -153q-86 0 -176 61q-73 50 -104 105q-53 95 -53 254v459q0 90 -7 115q-15 55 -76 60l-6 40q94 34 231 54q24 -58 24 -212v-453q0 -174 36 -243q26 -49 86 -81q57 -29 116 -29q77 0 159.5 45t127.5 109v595q0 96 -8 123q-16 53 -73 52
l-6 40q104 37 230 56q25 -66 25 -239v-580q0 -190 24 -222q8 -11 18 -21.5t40 -18.5v-53zM888 1508q0 -41 -28 -70t-69 -29q-40 0 -69.5 29.5t-29.5 69.5t29.5 68.5t69.5 28.5q41 0 69 -28t28 -69zM550 1508q0 -40 -29.5 -69.5t-69.5 -29.5q-41 0 -69 29t-28 70t28 69t69 28
q40 0 69.5 -28.5t29.5 -68.5z" />
    <glyph glyph-name="dagger" unicode="&#x2020;" horiz-adv-x="1252" 
d="M1105 1051h-51q-15 22 -29 45q-18 20 -51 30q-50 15 -239 15q0 -25 -17 -42q-23 -23 -42 -23q0 -40 1 -160q0 -96 13 -123q21 -44 95 -44v-64q-61 0 -80 -39q-13 -26 -14 -104l-19 -909h-82l-25 909q-3 86 -9 102q-17 41 -86 41v64q79 0 103 47q15 29 15 120v160
q-12 0 -40 23q-20 17 -20 42q-186 2 -230 -15q-67 -25 -89 -75h-52q10 113 10 133q0 22 -10 135h52q11 -59 90 -88q36 -13 229 -15q7 16 24 44q23 23 40 23q0 187 -20 247q-20 57 -79 83v46q20 0 67.5 -3.5t72.5 -3.5q21 0 69 3.5t67 3.5v-46q-58 -25 -78 -83t-20 -247
q11 0 43 -27q17 -14 20 -40q188 0 237 21q57 25 86 82h48q-10 -124 -10 -133q0 -22 10 -135z" />
    <glyph glyph-name="degree" unicode="&#xb0;" horiz-adv-x="829" 
d="M727 1069q0 -127 -90 -217t-217 -90q-128 0 -218 90t-90 217q0 128 90.5 217.5t217.5 89.5q126 0 216.5 -89.5t90.5 -217.5zM643 1071q0 92 -66 156.5t-157 64.5q-92 0 -158 -64t-66 -157t65.5 -158t158.5 -65q92 0 157.5 65.5t65.5 157.5z" />
    <glyph glyph-name="cent" unicode="&#xa2;" horiz-adv-x="1325" 
d="M1176 241q-26 -113 -74 -193q-144 -55 -301 -55q-75 0 -134 10l-82 -362h-120l90 397q-95 38 -167 100q-189 164 -189 428q0 232 161 396q165 168 413 168h30l83 365h122l-87 -380q86 -20 134 -25q12 -1 76 4l6 -214l-34 -7q-60 81 -104 105q-10 5 -102 30l-203 -888
q54 -18 159 -18q125 0 203 61q35 27 69 88zM779 1023q-195 0 -309 -140q-98 -121 -98 -278q0 -248 164 -391q29 -25 50 -40z" />
    <glyph glyph-name="sterling" unicode="&#xa3;" horiz-adv-x="1387" 
d="M1265 235q-4 -28 -88 -238q-113 10 -530 16q-76 1 -156 -5q-89 -8 -180 -8v57q55 0 92.5 43.5t37.5 112.5v366h-261v105h261v181h-259v104h259v69q0 227 141 367q129 128 307 128q176 0 292 -60q6 -40 17 -187h-60q-16 68 -91 111q-63 37 -124 37q-141 0 -215 -79
q-85 -89 -85 -334v-52h305q33 -4 61 39q18 29 24 58h62l-20 -201h-432v-181h425q0 -22 10 -87t10 -121h-58q-16 103 -128 103h-259v-231q0 -145 44 -188q36 -35 169 -50h120q202 -5 246 125h63z" />
    <glyph glyph-name="bullet" unicode="&#x2022;" horiz-adv-x="727" 
d="M608 688q0 -100 -69.5 -169.5t-168.5 -69.5t-169 70t-70 169t70.5 168t168.5 69t168 -69t70 -168z" />
    <glyph glyph-name="paragraph" unicode="&#xb6;" horiz-adv-x="1221" 
d="M1139 1451q-68 0 -93 -37q-20 -30 -20 -102v-1581q0 -163 107 -174v-53h-69q-39 0 -118.5 6.5t-119.5 6.5q-38 0 -113.5 -6.5t-113.5 -6.5h-78v53q101 11 101 177v762q-72 -16 -146 -16q-217 0 -338 185q-98 149 -98 332q0 200 117 349q131 167 345 167h637v-62z
M918 -289v1589q0 132 -92 132q-94 0 -94 -132v-1589q0 -140 94 -140q92 0 92 140z" />
    <glyph glyph-name="germandbls" unicode="&#xdf;" horiz-adv-x="1355" 
d="M1260 430q0 -204 -176 -332q-151 -110 -330 -110q-106 0 -194 57q-11 58 -11 91q0 92 3 124l51 7q0 -77 68 -125q59 -41 127 -41q134 0 208 72.5t74 206.5q0 83 -127 201q-23 21 -240 194q-124 99 -124 171q0 64 85 142l158 141q85 90 85 178q0 186 -223 186
q-150 0 -221 -129q-51 -93 -51 -223v-986q0 -163 19 -253h-331v54q125 11 125 189v933q0 205 137 359q155 174 407 174q120 0 205 -46q116 -63 116 -190q0 -109 -83 -217q-40 -52 -155 -156q-83 -75 -83 -106q0 -30 32 -57l74 -59l229 -183q146 -117 146 -267z" />
    <glyph glyph-name="registered" unicode="&#xae;" horiz-adv-x="1804" 
d="M1677 771q0 -319 -226 -545t-545 -226t-545 226t-226 545q0 321 226.5 545.5t544.5 224.5t544.5 -224.5t226.5 -545.5zM1575 771q0 278 -196.5 473t-472.5 195t-472.5 -195t-196.5 -473t196 -473.5t473 -195.5t473 195.5t196 473.5zM1383 329q-97 -40 -206 -49
q-22 14 -85 91l-193 295q-47 72 -159 72v-264q0 -122 87 -137v-50h-328v49q90 23 90 153v582q0 117 -78 144v51l152 -1q34 0 118 7t142 7q329 0 329 -260q0 -124 -122 -196q-69 -41 -143 -53q57 -30 102 -101l136 -215q24 -38 67 -63t75 -20zM1086 1003q0 116 -66 154
q-47 27 -167 27q-28 0 -113 -5v-120v-214q53 -11 124 -11q86 0 149 40q73 47 73 129z" />
    <glyph glyph-name="copyright" unicode="&#xa9;" horiz-adv-x="1804" 
d="M1677 771q0 -319 -226 -545t-545 -226t-545 226t-226 545q0 321 226.5 545.5t544.5 224.5t544.5 -224.5t226.5 -545.5zM1575 771q0 278 -196.5 473t-472.5 195t-472.5 -195t-196.5 -473t196 -473.5t473 -195.5t473 195.5t196 473.5zM1289 500q-23 -100 -66 -171
q-146 -56 -269 -56q-217 0 -356 121q-165 143 -165 381q0 204 141 347q136 139 360 139q49 0 121 -13q97 -16 120 -18q34 -4 67 -1l5 -189l-30 -6q-49 67 -91 90q-73 39 -184 39q-166 0 -260 -116q-86 -107 -86 -237q0 -218 140 -340q107 -93 277 -93q101 0 170 54
q30 24 61 78z" />
    <glyph glyph-name="trademark" unicode="&#x2122;" horiz-adv-x="1601" 
d="M1539 314q-24 -82 -85 -234q-197 -92 -383 -92q-324 0 -556 193q-214 178 -222 395h-240v109h227q-14 47 -14 91q6 27 13 91h-226v106h246q42 219 249 387q223 182 508 182q94 0 181 -24l106 -34q67 -15 99 7l48 -13l-46 -225l-55 14q-5 56 -57 95q-87 66 -296 66
q-207 0 -372 -154q-150 -139 -168 -301h501q31 -1 70 27q46 32 47 73h58q0 -55 -10 -118t-10 -88h-668q0 -13 -7 -40.5t-7 -51.5q0 -1 13 -90h669l20 -208h-58q-10 67 -66 88q-30 11 -98 11h-460q0 -146 181 -308q190 -169 389 -169q97 0 193 26q74 21 101 40q38 27 123 152
z" />
    <glyph glyph-name="acute" unicode="&#xb4;" horiz-adv-x="692" 
d="M563 1494l-329 -326h-103l214 326h218z" />
    <glyph glyph-name="dieresis" unicode="&#xa8;" horiz-adv-x="692" 
d="M618 1254q0 -41 -28 -70t-69 -29q-40 0 -69.5 29.5t-29.5 69.5t29.5 68.5t69.5 28.5q41 0 69 -28t28 -69zM280 1254q0 -40 -29.5 -69.5t-69.5 -29.5q-41 0 -69 29t-28 70t28 69t69 28q40 0 69.5 -28.5t29.5 -68.5z" />
    <glyph glyph-name="AE" unicode="&#xc6;" horiz-adv-x="2046" 
d="M1953 209q-13 -55 -43 -113q-35 -68 -53 -80q-37 -24 -239 -24q-46 0 -139.5 7.5t-140.5 7.5q-38 0 -112.5 -6t-111.5 -6q25 117 25 283v269h-550l-152 -261q-79 -157 -79 -286h-337v47q89 0 165 112q37 52 128 199l687 1183q95 -32 276 -32h321q132 0 157 3q50 6 81 35
l27 -21l-56 -203l-36 9q0 76 -154 76h-287q-6 -56 -6 -141v-409h304q137 0 173 47l35 -12l-57 -225l-36 4q-3 79 -138 79h-281v-514q0 -84 42 -110q51 -32 223 -32q128 0 194 19q52 15 136 109q13 -5 34 -14zM1131 656v710q0 54 -58 54l-423 -764h481z" />
    <glyph glyph-name="Oslash" unicode="&#xd8;" horiz-adv-x="1667" 
d="M1586 800q0 -361 -187 -590q-202 -248 -561 -248q-344 0 -550 233q-198 224 -198 572q0 349 205 571q212 229 558 229q325 0 536 -238q197 -223 197 -529zM1386 746q0 243 -136 455q-161 251 -416 251q-268 0 -416 -198q-131 -175 -131 -441q0 -256 142 -478
q164 -256 416 -256q286 0 426 211q115 173 115 456zM1350 1661l-862 -1853h-141l862 1853h141z" />
    <glyph glyph-name="yen" unicode="&#xa5;" horiz-adv-x="1390" 
d="M1279 1453q-70 0 -165 -155l-255 -411h208q65 0 95 40q12 17 31 77h40v-218h-442v-194h442v-224h-46q0 41 -24 75q-32 45 -93 45h-279v-343q0 -41 32 -70q27 -24 54 -24v-51h-351v51q39 0 62 30q21 27 21 64v343h-253q-73 0 -115 -39q-37 -33 -37 -81h-41v224h446v194
h-446v218h48q26 -117 145 -117h203l-255 390q-35 54 -114 147q-7 6 -71 29v52h259q-1 -36 11 -67q6 -19 61 -104l283 -443l255 410q39 64 55 146q5 25 3 56h233v-50z" />
    <glyph glyph-name="ordfeminine" unicode="&#xaa;" horiz-adv-x="2048" 
 />
    <glyph glyph-name="ae" unicode="&#xe6;" horiz-adv-x="1875" 
d="M1760 547h-772q0 -211 77 -310q39 -50 124 -93q91 -45 169 -45q109 0 195 35q67 27 122 106q12 -9 38 -25q-25 -95 -58 -146q-116 -85 -342 -85q-122 0 -240 72q-100 62 -165 152q-77 -122 -228 -187q-86 -37 -247 -37q-135 0 -225 90q-86 86 -86 208q0 371 701 371
q0 129 -14 186q-19 77 -79 128q-72 62 -200 62q-153 0 -268 -115q-25 -25 -34 -75h-46v172q173 135 386 135q134 0 239 -78q92 -68 119 -156q47 94 131 156q104 78 234 78q235 0 361 -190q108 -163 108 -409zM1582 653q0 147 -73 254q-83 122 -223 122q-128 0 -226 -131
q-61 -82 -67 -245h589zM847 313q-22 141 -16 234h-118q-135 0 -251 -44q-168 -64 -168 -195q0 -93 61 -151t156 -58q91 0 209 82q109 75 127 132z" />
    <glyph glyph-name="oslash" unicode="&#xf8;" horiz-adv-x="1287" 
d="M1197 584q0 -279 -137 -439q-146 -172 -420 -172q-232 0 -389 177q-151 170 -151 405q0 257 141 424q152 180 412 180q246 0 397 -166q147 -160 147 -409zM1026 553q0 184 -95 329q-112 171 -298 171q-224 0 -313 -215q-48 -116 -48 -261q0 -187 102 -333
q118 -169 313 -169q214 0 296 214q43 113 43 264zM1052 1270l-656 -1441h-131l656 1441h131z" />
    <glyph glyph-name="questiondown" unicode="&#xbf;" horiz-adv-x="2048" 
 />
    <glyph glyph-name="Agrave" unicode="&#xc0;" horiz-adv-x="1481" 
d="M1481 0h-326q5 47 5 83q0 50 -27 128l-91 258h-621q-50 -127 -93 -267q-16 -52 -16 -95q0 -95 1 -107h-283v46q66 14 113 86q25 38 62 133l490 1265h128l481 -1222q49 -125 70 -163q48 -87 107 -97v-48zM1005 576l-282 708l-266 -708h548zM912 1661h-103l-329 326h218z
" />
    <glyph glyph-name="Atilde" unicode="&#xc3;" horiz-adv-x="1481" 
d="M1481 0h-326q5 47 5 83q0 50 -27 128l-91 258h-621q-50 -127 -93 -267q-16 -52 -16 -95q0 -95 1 -107h-283v46q66 14 113 86q25 38 62 133l490 1265h128l481 -1222q49 -125 70 -163q48 -87 107 -97v-48zM1005 576l-282 708l-266 -708h548zM1061 1895q-18 -76 -58 -136
q-53 -77 -119 -77q-45 0 -133.5 39t-126.5 39q-75 0 -116 -88h-55q65 207 207 207q40 0 117.5 -37.5t117.5 -37.5q74 0 115 91h51z" />
    <glyph glyph-name="Otilde" unicode="&#xd5;" horiz-adv-x="1667" 
d="M1606 800q0 -361 -187 -590q-202 -248 -561 -248q-344 0 -550 233q-198 224 -198 572q0 349 205 571q212 229 558 229q325 0 536 -238q197 -223 197 -529zM1406 746q0 243 -136 455q-161 251 -416 251q-268 0 -416 -198q-131 -175 -131 -441q0 -256 142 -478
q164 -256 416 -256q286 0 426 211q115 173 115 456zM1159 1899q-18 -76 -58 -136q-53 -77 -119 -77q-45 0 -133.5 39t-126.5 39q-75 0 -116 -88h-55q65 207 207 207q40 0 117.5 -37.5t117.5 -37.5q74 0 115 91h51z" />
    <glyph glyph-name="OE" unicode="&#x152;" horiz-adv-x="2212" 
d="M2115 209q-13 -55 -43 -113q-35 -68 -53 -80q-28 -18 -259 -18q-87 0 -261 9.5t-261 9.5q-66 0 -197.5 -9.5t-197.5 -9.5q-321 0 -530 224q-203 218 -203 542q0 339 206 559q211 225 548 222q67 -1 201 -18.5t203 -17.5h492q132 0 157 3q50 6 81 35l27 -21l-56 -203
l-36 9q0 76 -154 76h-356q-6 -56 -6 -141v-409h373q137 0 173 47l35 -12l-57 -225l-36 4q-3 79 -138 79h-350v-514q0 -98 126 -128q59 -14 202 -14q134 0 200 19q52 15 136 109q13 -5 34 -14zM1240 793q0 241 -17 361q-33 231 -207 275q-40 10 -135 10q-317 0 -460 -252
q-98 -173 -98 -417q0 -223 141 -422q172 -243 457 -243q261 0 298 263q21 148 21 425z" />
    <glyph glyph-name="oe" unicode="&#x153;" horiz-adv-x="1875" 
d="M1760 547h-772q0 -211 77 -310q39 -50 124 -93q91 -45 169 -45q109 0 195 35q67 27 122 106q12 -9 38 -25q-25 -95 -58 -146q-117 -86 -342 -86q-122 0 -240 73q-100 62 -165 152q-31 -89 -112 -152q-94 -73 -215 -73q-228 0 -370 171q-133 160 -133 395q0 248 112 412
q126 185 353 185q262 0 383 -234q47 94 131 156q104 78 234 78q235 0 361 -190q108 -163 108 -409zM1582 653q0 147 -73 254q-83 122 -223 122q-141 0 -221 -123q-67 -103 -72 -253h589zM837 597q-11 174 -49 265q-71 167 -244 167q-137 0 -216 -118q-82 -122 -82 -340
q0 -145 73 -285q97 -187 271 -187q77 0 148 69q64 63 78 131q30 150 21 298z" />
    <glyph glyph-name="endash" unicode="&#x2013;" horiz-adv-x="1034" 
d="M985 669l-51 -138l-704 1q-92 0 -126 -33l-36 16l48 136h695q100 0 134 33z" />
    <glyph glyph-name="emdash" unicode="&#x2014;" horiz-adv-x="2058" 
d="M1994 669l-51 -138l-1707 1q-92 0 -126 -33l-36 16l48 136h1698q100 0 134 33z" />
    <glyph glyph-name="quotedblleft" unicode="&#x201c;" horiz-adv-x="946" 
d="M829 1611q-143 -108 -143 -228q0 -31 62 -62q67 -33 67 -101q0 -50 -33 -86t-83 -36q-72 0 -110 58q-33 50 -33 125q0 107 73 216q68 101 167 159zM399 1611q-143 -108 -143 -228q0 -31 62 -62q67 -33 67 -101q0 -50 -33 -86t-83 -36q-72 0 -110 58q-33 50 -33 125
q0 107 73 216q68 101 167 159z" />
    <glyph glyph-name="quotedblright" unicode="&#x201d;" horiz-adv-x="946" 
d="M789 1419q0 -103 -48 -202.5t-128 -164.5l-40 38q104 111 104 226q0 34 -15 46q-8 7 -52 21q-39 13 -66 48.5t-27 76.5q0 49 36.5 80.5t85.5 31.5q99 0 135 -110q15 -46 15 -91zM368 1419q0 -103 -48 -202.5t-128 -164.5l-40 38q104 111 104 226q0 34 -15 46q-8 7 -52 21
q-39 13 -66 48.5t-27 76.5q0 49 36.5 80.5t85.5 31.5q99 0 135 -110q15 -46 15 -91z" />
    <glyph glyph-name="quoteleft" unicode="&#x2018;" horiz-adv-x="485" 
d="M367 1611q-143 -108 -143 -228q0 -31 62 -62q67 -33 67 -101q0 -50 -33 -86t-83 -36q-72 0 -110 58q-33 50 -33 125q0 107 73 216q68 101 167 159z" />
    <glyph glyph-name="quoteright" unicode="&#x2019;" horiz-adv-x="485" 
d="M371 1419q0 -103 -48 -202.5t-128 -164.5l-40 38q104 111 104 226q0 34 -15 46q-8 7 -52 21q-39 13 -66 48.5t-27 76.5q0 49 36.5 80.5t85.5 31.5q99 0 135 -110q15 -46 15 -91z" />
    <glyph glyph-name="ydieresis" unicode="&#xff;" horiz-adv-x="1150" 
d="M1148 1049q-52 -10 -72 -31q-27 -28 -66 -137q-231 -638 -346 -904q-54 -131 -137 -300q-97 -133 -273 -133q-137 0 -234 103q2 68 46 195l45 -13q13 -86 29 -111q31 -49 122 -49q90 0 160 87q75 93 150 309q-170 422 -377 856q-34 71 -50 89q-28 31 -77 36v54h376v-53
q-27 -2 -46.5 -24.5t-19.5 -49.5q0 -44 19 -90l257 -634q154 378 226 626q24 82 24 96q0 65 -69 76v54h313v-52zM899 1517q0 -41 -28 -70t-69 -29q-40 0 -69.5 29.5t-29.5 69.5t29.5 68.5t69.5 28.5q41 0 69 -28t28 -69zM561 1517q0 -40 -29.5 -69.5t-69.5 -29.5
q-41 0 -69 29t-28 70t28 69t69 28q40 0 69.5 -28.5t29.5 -68.5z" />
    <glyph glyph-name="Ydieresis" unicode="&#x178;" horiz-adv-x="1327" 
d="M1327 1467q-90 -18 -166 -126l-388 -551v-528q0 -162 13 -182q18 -27 56 -32v-48h-322v48q29 4 55 32q17 18 17 182v526l-402 547q-46 61 -79 93q-37 36 -71 40v46h277q-1 -57 80 -173l314 -432q165 222 307 433q57 85 57 172h252v-47zM984 1772q0 -41 -28 -70t-69 -29
q-40 0 -69.5 29.5t-29.5 69.5t29.5 68.5t69.5 28.5q41 0 69 -28t28 -69zM646 1772q0 -40 -29.5 -69.5t-69.5 -29.5q-41 0 -69 29t-28 70t28 69t69 28q40 0 69.5 -28.5t29.5 -68.5z" />
    <glyph glyph-name="daggerdbl" unicode="&#x2021;" horiz-adv-x="1252" 
d="M1105 1051h-51l-30 45q-17 20 -50 30q-50 15 -242 15q0 -22 -20 -42q-23 -23 -42 -23q0 -161 0 -160q10 -83 34 -118q33 -49 113 -49q46 0 82 18q44 23 44 65h53q-10 -58 -10 -117q0 -34 10 -126h-43q-27 96 -133 96q-85 0 -111 -38q-18 -27 -20 -105l-20 -909h-76
l-26 909q-2 76 -18 103q-24 40 -94 40q-59 0 -90 -21q-27 -19 -57 -75h-45q10 98 10 128q0 31 -10 115h59q0 -83 133 -83q134 0 138 167q0 61 1 160q-12 0 -40 23q-23 19 -23 42q-188 2 -233 -15q-67 -25 -89 -75h-52q10 113 10 133q0 22 -10 135h52q11 -59 90 -88
q35 -13 232 -15q7 16 24 44q23 23 40 23q0 178 -23 247q-20 57 -79 83v46q20 0 67.5 -3.5t72.5 -3.5q21 0 69 3.5t67 3.5v-46q-58 -25 -78 -83q-23 -67 -23 -247q11 0 43 -27q17 -14 20 -40q191 0 240 21q57 25 86 82h48q-10 -124 -10 -133q0 -22 10 -135z" />
    <glyph glyph-name="Acircumflex" unicode="&#xc2;" horiz-adv-x="1481" 
d="M1481 0h-326q5 47 5 83q0 50 -27 128l-91 258h-621q-50 -127 -93 -267q-16 -52 -16 -95q0 -95 1 -107h-283v46q66 14 113 86q25 38 62 133l490 1265h128l481 -1222q49 -125 70 -163q48 -87 107 -97v-48zM1005 576l-282 708l-266 -708h548zM997 1655h-81l-167 191
l-169 -191h-79l216 323h62z" />
    <glyph glyph-name="Ecircumflex" unicode="&#xca;" horiz-adv-x="1214" 
d="M1131 210q-13 -55 -43 -113q-35 -68 -53 -80q-37 -24 -239 -24q-64 0 -192.5 6.5t-192.5 6.5q-37 0 -110.5 -3t-110.5 -3v45q62 7 74 118q1 9 1 160v919q0 103 -5 135q-14 88 -67 90v42h583q132 0 157 3q50 6 81 35l27 -21l-56 -203l-36 9q0 76 -154 76h-343
q-6 -56 -6 -141v-409h360q137 0 173 47l35 -12l-57 -225l-36 4q-3 79 -138 79h-337v-513q0 -103 116 -131q46 -11 199 -11q134 0 200 19q52 15 136 109q13 -5 34 -14zM859 1659h-81l-167 191l-169 -191h-79l216 323h62z" />
    <glyph glyph-name="Aacute" unicode="&#xc1;" horiz-adv-x="1481" 
d="M1038 1989l-329 -326h-103l214 326h218zM1481 0h-326q5 47 5 83q0 50 -27 128l-91 258h-621q-50 -127 -93 -267q-16 -52 -16 -95q0 -95 1 -107h-283v46q66 14 113 86q25 38 62 133l490 1265h128l481 -1222q49 -125 70 -163q48 -87 107 -97v-48zM1005 576l-282 708
l-266 -708h548z" />
    <glyph glyph-name="Edieresis" unicode="&#xcb;" horiz-adv-x="1214" 
d="M1131 210q-13 -55 -43 -113q-35 -68 -53 -80q-37 -24 -239 -24q-64 0 -192.5 6.5t-192.5 6.5q-37 0 -110.5 -3t-110.5 -3v45q62 7 74 118q1 9 1 160v919q0 103 -5 135q-14 88 -67 90v42h583q132 0 157 3q50 6 81 35l27 -21l-56 -203l-36 9q0 76 -154 76h-343
q-6 -56 -6 -141v-409h360q137 0 173 47l35 -12l-57 -225l-36 4q-3 79 -138 79h-337v-513q0 -103 116 -131q46 -11 199 -11q134 0 200 19q52 15 136 109q13 -5 34 -14zM876 1761q0 -41 -28 -70t-69 -29q-40 0 -69.5 29.5t-29.5 69.5t29.5 68.5t69.5 28.5q41 0 69 -28t28 -69z
M538 1761q0 -40 -29.5 -69.5t-69.5 -29.5q-41 0 -69 29t-28 70t28 69t69 28q40 0 69.5 -28.5t29.5 -68.5z" />
    <glyph glyph-name="Egrave" unicode="&#xc8;" horiz-adv-x="1214" 
d="M1131 210q-13 -55 -43 -113q-35 -68 -53 -80q-37 -24 -239 -24q-64 0 -192.5 6.5t-192.5 6.5q-37 0 -110.5 -3t-110.5 -3v45q62 7 74 118q1 9 1 160v919q0 103 -5 135q-14 88 -67 90v42h583q132 0 157 3q50 6 81 35l27 -21l-56 -203l-36 9q0 76 -154 76h-343
q-6 -56 -6 -141v-409h360q137 0 173 47l35 -12l-57 -225l-36 4q-3 79 -138 79h-337v-513q0 -103 116 -131q46 -11 199 -11q134 0 200 19q52 15 136 109q13 -5 34 -14zM734 1663h-103l-329 326h218z" />
    <glyph glyph-name="Iacute" unicode="&#xcd;" horiz-adv-x="704" 
d="M544 1473q-71 -27 -71 -132q0 -21 -2 -62.5t-2 -63.5l2 -1038q0 -53 11 -80q15 -36 60 -53v-44h-332v44q63 22 75 133q2 19 2 92v946q0 31 -3 126q-3 100 -70 132v41h330v-41zM683 1983l-329 -326h-103l214 326h218z" />
    <glyph glyph-name="Icircumflex" unicode="&#xce;" horiz-adv-x="704" 
d="M544 1473q-71 -27 -71 -132q0 -21 -2 -62.5t-2 -63.5l2 -1038q0 -53 11 -80q15 -36 60 -53v-44h-332v44q63 22 75 133q2 19 2 92v946q0 31 -3 126q-3 100 -70 132v41h330v-41zM616 1661h-81l-167 191l-169 -191h-79l216 323h62z" />
    <glyph glyph-name="Idieresis" unicode="&#xcf;" horiz-adv-x="704" 
d="M544 1473q-71 -27 -71 -132q0 -21 -2 -62.5t-2 -63.5l2 -1038q0 -53 11 -80q15 -36 60 -53v-44h-332v44q63 22 75 133q2 19 2 92v946q0 31 -3 126q-3 100 -70 132v41h330v-41zM628 1768q0 -41 -28 -70t-69 -29q-40 0 -69.5 29.5t-29.5 69.5t29.5 68.5t69.5 28.5
q41 0 69 -28t28 -69zM290 1768q0 -40 -29.5 -69.5t-69.5 -29.5q-41 0 -69 29t-28 70t28 69t69 28q40 0 69.5 -28.5t29.5 -68.5z" />
    <glyph glyph-name="Igrave" unicode="&#xcc;" horiz-adv-x="704" 
d="M544 1473q-71 -27 -71 -132q0 -21 -2 -62.5t-2 -63.5l2 -1038q0 -53 11 -80q15 -36 60 -53v-44h-332v44q63 22 75 133q2 19 2 92v946q0 31 -3 126q-3 100 -70 132v41h330v-41zM508 1658h-103l-329 326h218z" />
    <glyph glyph-name="Oacute" unicode="&#xd3;" horiz-adv-x="1667" 
d="M1606 800q0 -361 -187 -590q-202 -248 -561 -248q-344 0 -550 233q-198 224 -198 572q0 349 205 571q212 229 558 229q325 0 536 -238q197 -223 197 -529zM1406 746q0 243 -136 455q-161 251 -416 251q-268 0 -416 -198q-131 -175 -131 -441q0 -256 142 -478
q164 -256 416 -256q286 0 426 211q115 173 115 456zM1119 1984l-329 -326h-103l214 326h218z" />
    <glyph glyph-name="Ocircumflex" unicode="&#xd4;" horiz-adv-x="1667" 
d="M1606 800q0 -361 -187 -590q-202 -248 -561 -248q-344 0 -550 233q-198 224 -198 572q0 349 205 571q212 229 558 229q325 0 536 -238q197 -223 197 -529zM1406 746q0 243 -136 455q-161 251 -416 251q-268 0 -416 -198q-131 -175 -131 -441q0 -256 142 -478
q164 -256 416 -256q286 0 426 211q115 173 115 456zM1073 1660h-81l-167 191l-169 -191h-79l216 323h62z" />
    <glyph glyph-name="Ograve" unicode="&#xd2;" horiz-adv-x="1667" 
d="M1606 800q0 -361 -187 -590q-202 -248 -561 -248q-344 0 -550 233q-198 224 -198 572q0 349 205 571q212 229 558 229q325 0 536 -238q197 -223 197 -529zM1406 746q0 243 -136 455q-161 251 -416 251q-268 0 -416 -198q-131 -175 -131 -441q0 -256 142 -478
q164 -256 416 -256q286 0 426 211q115 173 115 456zM991 1661h-103l-329 326h218z" />
    <glyph glyph-name="Uacute" unicode="&#xda;" horiz-adv-x="1596" 
d="M1446 4h-255v176q-129 -192 -424 -192q-193 0 -340 105q-191 137 -191 401v721q0 42 -3 126q-4 107 -73 132v41h324v-41q-65 -27 -65 -132q0 -21 -1 -64t-1 -62l-1 -668q0 -204 95 -318q101 -122 298 -122q229 0 384 227v881q0 61 -2 126q-3 103 -74 132v41h321v-41
q-62 -24 -62 -132q0 -21 -1 -63t-1 -63v-970q0 -81 6 -107q14 -59 66 -88v-46zM1055 1992l-329 -326h-103l214 326h218z" />
    <glyph glyph-name="Ucircumflex" unicode="&#xdb;" horiz-adv-x="1596" 
d="M1446 4h-255v176q-129 -192 -424 -192q-193 0 -340 105q-191 137 -191 401v721q0 42 -3 126q-4 107 -73 132v41h324v-41q-65 -27 -65 -132q0 -21 -1 -64t-1 -62l-1 -668q0 -204 95 -318q101 -122 298 -122q229 0 384 227v881q0 61 -2 126q-3 103 -74 132v41h321v-41
q-62 -24 -62 -132q0 -21 -1 -63t-1 -63v-970q0 -81 6 -107q14 -59 66 -88v-46zM1061 1662h-81l-167 191l-169 -191h-79l216 323h62z" />
    <glyph glyph-name="Ugrave" unicode="&#xd9;" horiz-adv-x="1596" 
d="M1446 4h-255v176q-129 -192 -424 -192q-193 0 -340 105q-191 137 -191 401v721q0 42 -3 126q-4 107 -73 132v41h324v-41q-65 -27 -65 -132q0 -21 -1 -64t-1 -62l-1 -668q0 -204 95 -318q101 -122 298 -122q229 0 384 227v881q0 61 -2 126q-3 103 -74 132v41h321v-41
q-62 -24 -62 -132q0 -21 -1 -63t-1 -63v-970q0 -81 6 -107q14 -59 66 -88v-46zM907 1657h-103l-329 326h218z" />
    <glyph glyph-name="circumflex" unicode="&#x2c6;" horiz-adv-x="692" 
d="M599 1169h-81l-167 191l-169 -191h-79l216 323h62z" />
    <glyph glyph-name="tilde" unicode="&#x2dc;" horiz-adv-x="692" 
d="M651 1445q-18 -76 -58 -136q-53 -77 -119 -77q-45 0 -133.5 39t-126.5 39q-75 0 -116 -88h-55q65 207 207 207q40 0 117.5 -37.5t117.5 -37.5q74 0 115 91h51z" />
    <glyph glyph-name="macron" unicode="&#xaf;" horiz-adv-x="761" 
d="M624 1413l-51 -138l-291 1q-92 0 -126 -33l-36 16l48 136h282q101 0 134 33z" />
    <glyph glyph-name="macron" unicode="&#x2c9;" horiz-adv-x="761" 
d="M624 1413l-51 -138l-291 1q-92 0 -126 -33l-36 16l48 136h282q101 0 134 33z" />
    <glyph glyph-name="cedilla" unicode="&#xb8;" horiz-adv-x="691" 
d="M507 -220q0 -70 -78 -123.5t-175 -53.5q-21 0 -41 3q17 42 17 46q9 -1 17 -1q52 0 93 27q46 31 46 82q0 87 -135 87l79 171q109 -4 125 0l-61 -128q52 0 84 -36q29 -32 29 -74z" />
    <glyph glyph-name="Thorn" unicode="&#xde;" horiz-adv-x="2048" 
 />
    <glyph glyph-name="minus" unicode="&#xad;" horiz-adv-x="1371" 
d="M1238 487h-1086v131h1086v-131z" />
    <glyph glyph-name="minus" unicode="&#x2212;" horiz-adv-x="1371" 
d="M1238 487h-1086v131h1086v-131z" />
    <glyph glyph-name="multiply" unicode="&#xd7;" horiz-adv-x="1378" 
d="M1196 953l-410 -408l406 -405l-92 -92l-406 405l-405 -405l-93 92l406 405l-408 410l92 92l408 -409l408 409z" />
    <glyph glyph-name="threequarters" unicode="&#xbe;" horiz-adv-x="2048" 
 />
    <glyph glyph-name="lslash" unicode="&#x142;" horiz-adv-x="1288" 
 />
    <glyph glyph-name="HT" horiz-adv-x="458" 
 />
    <glyph glyph-name="nonmarkingreturn" horiz-adv-x="458" 
 />
    <glyph glyph-name="fraction" unicode="&#x2044;" horiz-adv-x="1137" 
d="M1028 1575l-777 -1616h-131l777 1616h131z" />
    <glyph glyph-name="fi" unicode="&#xf001;" horiz-adv-x="1246" 
d="M1136 0h-359v45q107 3 107 173v577q0 138 -23 158t-71 20h-392v-741q0 -87 25 -126q29 -46 110 -58v-48h-382v47q40 9 57 30q24 29 24 157v739h-132v57q107 30 132 124v42q0 177 71 297q112 189 401 189q121 0 222 -44q135 -59 135 -172q0 -52 -31.5 -86t-81.5 -34
q-56 0 -93 40q-33 36 -33 80q0 14 5 26q-34 47 -56 62q-35 24 -96 24q-277 0 -277 -333v-153h660q-9 -159 -9 -296v-579q0 -159 87 -172v-45z" />
    <glyph glyph-name="fl" unicode="&#xf002;" horiz-adv-x="1257" 
d="M1147 0h-367v44q103 3 103 266v1047q0 132 -37 162q-60 49 -175 49q-271 0 -271 -273v-203h299l-44 -119h-255v-741q0 -86 24 -125q29 -47 109 -59v-48h-382v47q40 9 57 30q24 29 24 157v739h-132v57q107 30 132 124v65q0 195 77 294q127 164 354 164q45 0 126.5 -14
t111.5 -14l155 11l-4 -134l-1 -1222q0 -138 9 -177q17 -75 87 -80v-47z" />
    <glyph glyph-name="dotlessi" unicode="&#x131;" horiz-adv-x="590" 
d="M491 0h-361v45q106 3 106 173v568q0 134 -14 183q-19 68 -79 83v53h271q-10 -82 -10 -286v-602q0 -159 87 -172v-45z" />
    <glyph glyph-name="breve" unicode="&#x2d8;" horiz-adv-x="692" 
d="M609 1492l-228 -323h-62l-226 323h79l179 -180l177 180h81z" />
    <glyph glyph-name="ring" unicode="&#x2da;" horiz-adv-x="829" 
d="M611 1339q0 -79 -56 -135.5t-135 -56.5q-80 0 -136 56.5t-56 135.5q0 80 56.5 136t135.5 56t135 -56t56 -136zM537 1340q0 48 -35 82t-82 34q-48 0 -83 -33.5t-35 -82.5t34.5 -83t83.5 -34q48 0 82.5 34.5t34.5 82.5z" />
    </font>
</defs>
</svg>
